<?xml version="1.0" encoding="UTF-8" standalone="no"?>
<!-- Created with Inkscape (http://www.inkscape.org/) -->

<svg
   xmlns:dc="http://purl.org/dc/elements/1.1/"
   xmlns:cc="http://creativecommons.org/ns#"
   xmlns:rdf="http://www.w3.org/1999/02/22-rdf-syntax-ns#"
   xmlns:svg="http://www.w3.org/2000/svg"
   xmlns="http://www.w3.org/2000/svg"
   xmlns:xlink="http://www.w3.org/1999/xlink"
   xmlns:sodipodi="http://sodipodi.sourceforge.net/DTD/sodipodi-0.dtd"
   xmlns:inkscape="http://www.inkscape.org/namespaces/inkscape"
   width="1366"
   height="768"
   id="svg2"
   version="1.1"
   inkscape:version="0.48.3.1 r9900"
   sodipodi:docname="南京站构造.svg"
   inkscape:export-xdpi="72"
   inkscape:export-ydpi="72" onload="try{ parent.initialize(evt); }catch(e) {}">
  <defs
     id="defs4">
    <linearGradient
       id="linearGradient5398">
      <stop
         style="stop-color:#ffffff;stop-opacity:0.2;"
         offset="0"
         id="stop5400" />
      <stop
         style="stop-color:#000f23;stop-opacity:0;"
         offset="1"
         id="stop5402" />
    </linearGradient>
    <radialGradient
       inkscape:collect="always"
       xlink:href="#linearGradient5398"
       id="radialGradient5404"
       cx="682.5"
       cy="384.5"
       fx="682.5"
       fy="384.5"
       r="682.99998"
       gradientTransform="matrix(1.4993631,-1.6089198e-8,1.3250651e-8,1.234837,-340.8153,-90.294796)"
       gradientUnits="userSpaceOnUse" />
  </defs>
  <sodipodi:namedview
     id="base"
     pagecolor="#e5e5e5"
     bordercolor="#666666"
     borderopacity="1.0"
     inkscape:pageopacity="1"
     inkscape:pageshadow="2"
     inkscape:zoom="0.57467057"
     inkscape:cx="625.05722"
     inkscape:cy="381.43695"
     inkscape:document-units="px"
     inkscape:current-layer="svg2"
     showgrid="false"
     inkscape:showpageshadow="false"
     inkscape:window-width="1366"
     inkscape:window-height="706"
     inkscape:window-x="-8"
     inkscape:window-y="-8"
     inkscape:window-maximized="1"
     borderlayer="false"
     showborder="true"
     inkscape:snap-midpoints="false"
     inkscape:snap-object-midpoints="false"
     inkscape:snap-grids="false"
     inkscape:snap-to-guides="false"
     showguides="true"
     inkscape:guide-bbox="true" />
  <metadata
     id="metadata7">
    <rdf:RDF>
      <cc:Work
         rdf:about="">
        <dc:format>image/svg+xml</dc:format>
        <dc:type
           rdf:resource="http://purl.org/dc/dcmitype/StillImage" />
        <dc:title />
      </cc:Work>
    </rdf:RDF>
  </metadata>
  <script
     id="script4174"
     xlink:href="../js/svgpan.js" />
  <g
     id="viewport">
    <g
     id="BG"
     style="display:inline">
      <rect
         style="fill:#000f23;fill-opacity:1;stroke:#ffffff;stroke-width:0.99898392;stroke-linecap:butt;stroke-miterlimit:4;stroke-opacity:1;stroke-dasharray:none"
         id="rect3756"
         width="1365.001"
         height="767.00104"
         x="-0.00050803315"
         y="0.99949193" />
    </g>
    <g
       style="display:inline"
       id="BGL">
      <rect
         y="0.99949193"
         x="-0.00050803315"
         height="767.00104"
         width="1365.001"
         id="rect5396"
         style="fill:url(#radialGradient5404);fill-opacity:1;stroke:#ffffff;stroke-width:0.99898392;stroke-linecap:butt;stroke-miterlimit:4;stroke-opacity:1;stroke-dasharray:none" />
    </g>
    <g
       id="Station"
       style="display:inline"
       transform="translate(0,-282)">
      <path
         style="fill:none;stroke:#ffffff;stroke-width:4;stroke-linecap:round;stroke-linejoin:miter;stroke-miterlimit:4;stroke-opacity:1;stroke-dasharray:none"
         d="m 147.91083,306.9155 0,24.28184 -109.628027,0"
         id="path4371"
         inkscape:connector-curvature="0"
         sodipodi:nodetypes="ccc" />
      <path
         style="fill:none;stroke:#ffffff;stroke-width:4;stroke-linecap:round;stroke-linejoin:miter;stroke-miterlimit:4;stroke-opacity:1;stroke-dasharray:none"
         d="m 238.39745,306.9155 0,24.28184 201.85478,0 0,85.41974"
         id="path4373"
         inkscape:connector-curvature="0"
         sodipodi:nodetypes="cccc" />
      <path
         style="fill:none;stroke:#ffffff;stroke-width:4;stroke-linecap:round;stroke-linejoin:miter;stroke-miterlimit:4;stroke-opacity:1;stroke-dasharray:none"
         d="m 471.55035,433.06489 -31.37662,17.84161 0,31.37662 19.30629,0"
         id="path4405"
         inkscape:connector-curvature="0" />
      <path
         style="fill:none;stroke:#ffffff;stroke-width:4;stroke-linecap:round;stroke-linejoin:miter;stroke-miterlimit:4;stroke-opacity:1;stroke-dasharray:none"
         d="m 38.282803,488.31259 0,447.83131 138.044647,0"
         id="path4407"
         inkscape:connector-curvature="0"
         sodipodi:nodetypes="ccc" />
      <path
         style="fill:none;stroke:#ffffff;stroke-width:4;stroke-linecap:round;stroke-linejoin:miter;stroke-miterlimit:4;stroke-opacity:1;stroke-dasharray:none"
         d="m 895.68508,432.13162 -28.89307,-28.89306 0,-72.04122 189.41009,0 0,-24.28184"
         id="path4409"
         inkscape:connector-curvature="0"
         sodipodi:nodetypes="ccccc" />
      <path
         style="fill:none;stroke:#ffffff;stroke-width:4;stroke-linecap:round;stroke-linejoin:miter;stroke-miterlimit:4;stroke-opacity:1;stroke-dasharray:none"
         d="m 866.79201,449.37713 0,32.90599 -20.86722,0"
         id="path4411"
         inkscape:connector-curvature="0" />
      <path
         style="fill:none;stroke:#ffffff;stroke-width:4;stroke-linecap:round;stroke-linejoin:miter;stroke-miterlimit:4;stroke-opacity:1;stroke-dasharray:none"
         d="m 1147.6968,306.9155 0,24.28184 179.7791,0"
         id="path4413"
         inkscape:connector-curvature="0"
         sodipodi:nodetypes="ccc" />
      <path
         sodipodi:nodetypes="ccc"
         inkscape:connector-curvature="0"
         id="path4415"
         d="m 1327.4759,488.31259 0,447.83131 -138.0446,0"
         style="fill:none;stroke:#ffffff;stroke-width:4;stroke-linecap:round;stroke-linejoin:miter;stroke-miterlimit:4;stroke-opacity:1;stroke-dasharray:none" />
      <path
         style="fill:none;stroke:#ffffff;stroke-width:4;stroke-linecap:round;stroke-linejoin:miter;stroke-miterlimit:4;stroke-opacity:1;stroke-dasharray:none"
         d="m 457.72318,816.90092 -17.54945,0 0,136.46936 45.32181,0"
         id="path4417"
         inkscape:connector-curvature="0"
         sodipodi:nodetypes="cccc" />
      <path
         sodipodi:nodetypes="cccc"
         inkscape:connector-curvature="0"
         id="path4783"
         d="m 849.24256,816.90092 17.54945,0 0,136.46936 -45.32181,0"
         style="fill:none;stroke:#ffffff;stroke-width:4;stroke-linecap:round;stroke-linejoin:miter;stroke-miterlimit:4;stroke-opacity:1;stroke-dasharray:none" />
      <g
         id="g4357"
         transform="translate(370.98734,-33.353603)">
        <rect
           style="fill:#00ff00;fill-opacity:1;stroke:none"
           id="rect4222"
           width="60"
           height="11.470589"
           x="455.29202"
           y="838.4931" />
        <path
           inkscape:connector-curvature="0"
           id="Out1"
           d="m 515.29193,524.74452 c 3.2e-4,-0.17285 -0.093,-0.3657 -0.17761,-0.5032 -0.0269,-0.0431 -0.0604,-0.0827 -0.0888,-0.11841 -0.0583,-0.073 -0.11518,-0.12275 -0.1776,-0.1776 -0.0475,-0.0421 -9.11689,-7.78488 -9.11689,-7.78488 0,0 -0.84789,-0.8288 -2.16083,-0.8288 l -8.11048,0 -20.45382,0 -7.99208,0 c -1.31292,0 -2.19041,0.8288 -2.19041,0.8288 0,0 -9.06944,7.74273 -9.11689,7.78488 -0.0624,0.0548 -0.11935,0.10457 -0.1776,0.1776 -0.0285,0.0357 -0.062,0.0753 -0.0888,0.11841 -0.0846,0.1375 -0.14832,0.33035 -0.148,0.5032 3.8e-4,0.17285 0.0171,0.21108 0.0592,0.3552 0.0421,0.14413 0.0632,0.20233 0.1184,0.29601 0.0552,0.0937 0.16349,0.20208 0.2368,0.2664 l 9.1169,7.78488 c 0,0 0.87748,0.82881 2.19041,0.82881 l 7.99208,0 7.90328,0 0,5.07051 c 0,0 0.9203,0.97842 2.39764,0.97681 1.47732,-0.002 2.36802,-0.97681 2.36802,-0.97681 l 0,-5.07051 7.78488,0 8.11048,0 c 1.31294,0 2.16082,-0.82881 2.16082,-0.82881 l 9.1465,-7.78488 c 0.0733,-0.0643 0.18158,-0.17272 0.2368,-0.2664 0.0552,-0.0937 0.0762,-0.15188 0.1184,-0.29601 0.0418,-0.14412 0.0589,-0.18235 0.0592,-0.3552 z m -4.02564,0.0592 c -4.5e-4,0.32586 -0.32561,0.62161 -0.32561,0.62161 l -5.77206,4.91365 c 0,0 -0.25556,0.23255 -0.5328,0.1184 0,0 -0.2664,-0.0372 -0.2664,-0.3552 l 0,-5.29846 0,-5.29845 c 0,-0.31795 0.2664,-0.35521 0.2664,-0.35521 0.27724,-0.11415 0.5328,0.11841 0.5328,0.11841 l 5.77206,4.91365 c 0,0 0.32604,0.29576 0.32561,0.6216 z m -45.05166,-5.29845 0,5.29845 0,5.29846 c 0,0.31799 -0.26641,0.3552 -0.26641,0.3552 -0.27723,0.11415 -0.5328,-0.1184 -0.5328,-0.1184 l -5.77206,-4.91365 c 0,0 -0.35476,-0.29575 -0.3552,-0.62161 -4.5e-4,-0.32584 0.3552,-0.6216 0.3552,-0.6216 l 5.77206,-4.91365 c 0,0 0.25557,-0.23256 0.5328,-0.11841 0,0 0.26641,0.0372 0.26641,0.35521 z"
           style="fill:#00ff00;fill-opacity:1;stroke:none"
           sodipodi:nodetypes="cccccsccscccccccccscccccccscccccccccscsccccscscccccccs" onclick="try{ parent.loadDevice(evt,0);}catch(e){}" />
        <path
           inkscape:connector-curvature="0"
           id="Out2"
           d="m 515.29193,560.53295 c 3.3e-4,-0.17285 -0.093,-0.3361 -0.1776,-0.47361 -0.0269,-0.0431 -0.0603,-0.11229 -0.0888,-0.148 -0.0583,-0.073 -0.11518,-0.12276 -0.1776,-0.1776 -0.0475,-0.0421 -9.1169,-7.78488 -9.1169,-7.78488 0,0 -0.84788,-0.82881 -2.16081,-0.82881 l -8.11048,0 -20.45382,0 -7.99208,0 c -1.31294,0 -2.19042,0.82881 -2.19042,0.82881 0,0 -9.06944,7.74273 -9.11689,7.78488 -0.0624,0.0548 -0.11935,0.10457 -0.17761,0.1776 -0.0285,0.0357 -0.0619,0.1049 -0.0888,0.148 -0.0846,0.13751 -0.14832,0.30076 -0.148,0.47361 3.8e-4,0.17284 0.0171,0.24067 0.0592,0.3848 0.0421,0.14413 0.0632,0.17272 0.1184,0.2664 0.0552,0.0937 0.16349,0.20209 0.2368,0.26641 l 9.1169,7.78488 c 0,0 0.87748,0.8288 2.19042,0.8288 l 7.99208,0 7.90328,0 0,5.24812 c 0,0 0.9203,0.97843 2.39762,0.97681 1.47734,-0.002 2.36804,-0.97681 2.36804,-0.97681 l 0,-5.24812 7.78488,0 8.11048,0 c 1.31293,0 2.16081,-0.8288 2.16081,-0.8288 l 9.14649,-7.78488 c 0.0733,-0.0643 0.18158,-0.17273 0.23681,-0.26641 0.0552,-0.0937 0.0762,-0.12227 0.1184,-0.2664 0.0418,-0.14413 0.0589,-0.21196 0.0592,-0.3848 z m -4.02564,0.0592 c -4.4e-4,0.32586 -0.3256,0.6216 -0.3256,0.6216 l -5.77206,4.91365 c 0,0 -0.25557,0.23255 -0.5328,0.11841 0,0 -0.26641,-0.0372 -0.26641,-0.35521 l 0,-5.29845 0,-5.29846 c 0,-0.31795 0.26641,-0.3552 0.26641,-0.3552 0.27723,-0.11416 0.5328,0.1184 0.5328,0.1184 l 5.77206,4.94325 c 0,0 0.32604,0.26617 0.3256,0.59201 z"
           style="fill:#00ff00;fill-opacity:1;stroke:none"
           sodipodi:nodetypes="cccccsccscccccscccscccccccscccccscccscscccs" onclick="try{ parent.loadDevice(evt,0);}catch(e){}" />
        <path
           sodipodi:nodetypes="cccccsccscccccscccscccccccscccccscccscscccs"
           style="fill:#00ff00;fill-opacity:1;stroke:none"
           d="m 515.29193,596.49899 c 3.3e-4,-0.17285 -0.093,-0.3361 -0.1776,-0.47361 -0.0269,-0.0431 -0.0603,-0.11229 -0.0888,-0.148 -0.0583,-0.073 -0.11518,-0.12276 -0.1776,-0.1776 -0.0475,-0.0421 -9.1169,-7.78488 -9.1169,-7.78488 0,0 -0.84788,-0.82881 -2.16081,-0.82881 l -8.11048,0 -20.45382,0 -7.99208,0 c -1.31294,0 -2.19042,0.82881 -2.19042,0.82881 0,0 -9.06944,7.74273 -9.11689,7.78488 -0.0624,0.0548 -0.11935,0.10457 -0.17761,0.1776 -0.0285,0.0357 -0.0619,0.1049 -0.0888,0.148 -0.0846,0.13751 -0.14832,0.30076 -0.148,0.47361 3.8e-4,0.17284 0.0171,0.24067 0.0592,0.3848 0.0421,0.14413 0.0632,0.17272 0.1184,0.2664 0.0552,0.0937 0.16349,0.20209 0.2368,0.26641 l 9.1169,7.78488 c 0,0 0.87748,0.8288 2.19042,0.8288 l 7.99208,0 7.90328,0 0,5.24812 c 0,0 0.9203,0.97843 2.39762,0.97681 1.47734,-0.002 2.36804,-0.97681 2.36804,-0.97681 l 0,-5.24812 7.78488,0 8.11048,0 c 1.31293,0 2.16081,-0.8288 2.16081,-0.8288 l 9.14649,-7.78488 c 0.0733,-0.0643 0.18158,-0.17273 0.23681,-0.26641 0.0552,-0.0937 0.0762,-0.12227 0.1184,-0.2664 0.0418,-0.14413 0.0589,-0.21196 0.0592,-0.3848 z m -4.02564,0.0592 c -4.4e-4,0.32586 -0.3256,0.6216 -0.3256,0.6216 l -5.77206,4.91365 c 0,0 -0.25557,0.23255 -0.5328,0.11841 0,0 -0.26641,-0.0372 -0.26641,-0.35521 l 0,-5.29845 0,-5.29846 c 0,-0.31795 0.26641,-0.3552 0.26641,-0.3552 0.27723,-0.11416 0.5328,0.1184 0.5328,0.1184 l 5.77206,4.94325 c 0,0 0.32604,0.26617 0.3256,0.59201 z"
           id="Out3"
           inkscape:connector-curvature="0" onclick="try{ parent.loadDevice(evt,0);}catch(e){}" />
        <path
           inkscape:connector-curvature="0"
           id="Out4"
           d="m 515.29193,632.46502 c 3.3e-4,-0.17285 -0.093,-0.3361 -0.1776,-0.47361 -0.0269,-0.0431 -0.0603,-0.11229 -0.0888,-0.148 -0.0583,-0.073 -0.11518,-0.12276 -0.1776,-0.1776 -0.0475,-0.0421 -9.1169,-7.78488 -9.1169,-7.78488 0,0 -0.84788,-0.82881 -2.16081,-0.82881 l -8.11048,0 -20.45382,0 -7.99208,0 c -1.31294,0 -2.19042,0.82881 -2.19042,0.82881 0,0 -9.06944,7.74273 -9.11689,7.78488 -0.0624,0.0548 -0.11935,0.10457 -0.17761,0.1776 -0.0285,0.0357 -0.0619,0.1049 -0.0888,0.148 -0.0846,0.13751 -0.14832,0.30076 -0.148,0.47361 3.8e-4,0.17284 0.0171,0.24067 0.0592,0.3848 0.0421,0.14413 0.0632,0.17272 0.1184,0.2664 0.0552,0.0937 0.16349,0.20209 0.2368,0.26641 l 9.1169,7.78488 c 0,0 0.87748,0.8288 2.19042,0.8288 l 7.99208,0 7.90328,0 0,5.24812 c 0,0 0.9203,0.97843 2.39762,0.97681 1.47734,-0.002 2.36804,-0.97681 2.36804,-0.97681 l 0,-5.24812 7.78488,0 8.11048,0 c 1.31293,0 2.16081,-0.8288 2.16081,-0.8288 l 9.14649,-7.78488 c 0.0733,-0.0643 0.18158,-0.17273 0.23681,-0.26641 0.0552,-0.0937 0.0762,-0.12227 0.1184,-0.2664 0.0418,-0.14413 0.0589,-0.21196 0.0592,-0.3848 z m -4.02564,0.0592 c -4.4e-4,0.32586 -0.3256,0.6216 -0.3256,0.6216 l -5.77206,4.91365 c 0,0 -0.25557,0.23255 -0.5328,0.11841 0,0 -0.26641,-0.0372 -0.26641,-0.35521 l 0,-5.29845 0,-5.29846 c 0,-0.31795 0.26641,-0.3552 0.26641,-0.3552 0.27723,-0.11416 0.5328,0.1184 0.5328,0.1184 l 5.77206,4.94325 c 0,0 0.32604,0.26617 0.3256,0.59201 z"
           style="fill:#00ff00;fill-opacity:1;stroke:none"
           sodipodi:nodetypes="cccccsccscccccscccscccccccscccccscccscscccs" onclick="try{ parent.loadDevice(evt,0);}catch(e){}" />
        <path
           sodipodi:nodetypes="cccccsccscccccccccscccccccscccccccccscsccccscscccccccs"
           style="fill:#00ff00;fill-opacity:1;stroke:none"
           d="m 515.29193,668.43104 c 3.2e-4,-0.17285 -0.093,-0.3657 -0.17761,-0.5032 -0.0269,-0.0431 -0.0604,-0.0827 -0.0888,-0.11841 -0.0583,-0.073 -0.11518,-0.12275 -0.1776,-0.1776 -0.0475,-0.0421 -9.11689,-7.78488 -9.11689,-7.78488 0,0 -0.84789,-0.8288 -2.16083,-0.8288 l -8.11048,0 -20.45382,0 -7.99208,0 c -1.31292,0 -2.19041,0.8288 -2.19041,0.8288 0,0 -9.06944,7.74273 -9.11689,7.78488 -0.0624,0.0548 -0.11935,0.10457 -0.1776,0.1776 -0.0285,0.0357 -0.062,0.0753 -0.0888,0.11841 -0.0846,0.1375 -0.14832,0.33035 -0.148,0.5032 3.8e-4,0.17285 0.0171,0.21108 0.0592,0.3552 0.0421,0.14413 0.0632,0.20233 0.1184,0.29601 0.0552,0.0937 0.16349,0.20208 0.2368,0.2664 l 9.1169,7.78488 c 0,0 0.87748,0.82881 2.19041,0.82881 l 7.99208,0 7.90328,0 0,5.07051 c 0,0 0.9203,0.97842 2.39764,0.97681 1.47732,-0.002 2.36802,-0.97681 2.36802,-0.97681 l 0,-5.07051 7.78488,0 8.11048,0 c 1.31294,0 2.16082,-0.82881 2.16082,-0.82881 l 9.1465,-7.78488 c 0.0733,-0.0643 0.18158,-0.17272 0.2368,-0.2664 0.0552,-0.0937 0.0762,-0.15188 0.1184,-0.29601 0.0418,-0.14412 0.0589,-0.18235 0.0592,-0.3552 z m -4.02564,0.0592 c -4.5e-4,0.32586 -0.32561,0.62161 -0.32561,0.62161 l -5.77206,4.91365 c 0,0 -0.25556,0.23255 -0.5328,0.1184 0,0 -0.2664,-0.0372 -0.2664,-0.3552 l 0,-5.29846 0,-5.29845 c 0,-0.31795 0.2664,-0.35521 0.2664,-0.35521 0.27724,-0.11415 0.5328,0.11841 0.5328,0.11841 l 5.77206,4.91365 c 0,0 0.32604,0.29576 0.32561,0.6216 z m -45.05166,-5.29845 0,5.29845 0,5.29846 c 0,0.31799 -0.26641,0.3552 -0.26641,0.3552 -0.27723,0.11415 -0.5328,-0.1184 -0.5328,-0.1184 l -5.77206,-4.91365 c 0,0 -0.35476,-0.29575 -0.3552,-0.62161 -4.5e-4,-0.32584 0.3552,-0.6216 0.3552,-0.6216 l 5.77206,-4.91365 c 0,0 0.25557,-0.23256 0.5328,-0.11841 0,0 0.26641,0.0372 0.26641,0.35521 z"
           id="Out5"
           inkscape:connector-curvature="0" onclick="try{ parent.loadDevice(evt,0);}catch(e){}" />
        <path
           inkscape:connector-curvature="0"
           id="In1"
           d="m 455.29212,704.21947 c -3.3e-4,-0.17285 0.093,-0.3361 0.1776,-0.47361 0.0269,-0.0431 0.0603,-0.11229 0.0888,-0.148 0.0583,-0.073 0.11518,-0.12276 0.1776,-0.1776 0.0475,-0.0421 9.1169,-7.78488 9.1169,-7.78488 0,0 0.84788,-0.82881 2.16081,-0.82881 l 8.11048,0 20.45382,0 7.99208,0 c 1.31294,0 2.19042,0.82881 2.19042,0.82881 0,0 9.06944,7.74273 9.11689,7.78488 0.0624,0.0548 0.11935,0.10457 0.17761,0.1776 0.0285,0.0357 0.0619,0.1049 0.0888,0.148 0.0846,0.13751 0.14832,0.30076 0.148,0.47361 -3.8e-4,0.17284 -0.0171,0.24067 -0.0592,0.3848 -0.0421,0.14413 -0.0632,0.17272 -0.1184,0.2664 -0.0552,0.0937 -0.16349,0.20209 -0.2368,0.26641 l -9.1169,7.78488 c 0,0 -0.87748,0.8288 -2.19042,0.8288 l -7.99208,0 -7.90328,0 0,5.24812 c 0,0 -0.9203,0.97843 -2.39762,0.97681 -1.47734,-0.002 -2.36804,-0.97681 -2.36804,-0.97681 l 0,-5.24812 -7.78488,0 -8.11048,0 c -1.31293,0 -2.16081,-0.8288 -2.16081,-0.8288 l -9.14649,-7.78488 c -0.0733,-0.0643 -0.18158,-0.17273 -0.23681,-0.26641 -0.0552,-0.0937 -0.0762,-0.12227 -0.1184,-0.2664 -0.0418,-0.14413 -0.0589,-0.21196 -0.0592,-0.3848 z m 4.02564,0.0592 c 4.4e-4,0.32586 0.3256,0.6216 0.3256,0.6216 l 5.77206,4.91365 c 0,0 0.25557,0.23255 0.5328,0.11841 0,0 0.26641,-0.0372 0.26641,-0.35521 l 0,-5.29845 0,-5.29846 c 0,-0.31795 -0.26641,-0.3552 -0.26641,-0.3552 -0.27723,-0.11416 -0.5328,0.1184 -0.5328,0.1184 l -5.77206,4.94325 c 0,0 -0.32604,0.26617 -0.3256,0.59201 z"
           style="fill:#00ff00;fill-opacity:1;stroke:none"
           sodipodi:nodetypes="cccccsccscccccscccscccccccscccccscccscscccs" onclick="try{ parent.loadDevice(evt,0);}catch(e){}" />
        <path
           inkscape:connector-curvature="0"
           id="In2"
           d="m 455.29212,740.18551 c -3.3e-4,-0.17285 0.093,-0.3361 0.1776,-0.47361 0.0269,-0.0431 0.0603,-0.11229 0.0888,-0.148 0.0583,-0.073 0.11518,-0.12276 0.1776,-0.1776 0.0475,-0.0421 9.1169,-7.78488 9.1169,-7.78488 0,0 0.84788,-0.82881 2.16081,-0.82881 l 8.11048,0 20.45382,0 7.99208,0 c 1.31294,0 2.19042,0.82881 2.19042,0.82881 0,0 9.06944,7.74273 9.11689,7.78488 0.0624,0.0548 0.11935,0.10457 0.17761,0.1776 0.0285,0.0357 0.0619,0.1049 0.0888,0.148 0.0846,0.13751 0.14832,0.30076 0.148,0.47361 -3.8e-4,0.17284 -0.0171,0.24067 -0.0592,0.3848 -0.0421,0.14413 -0.0632,0.17272 -0.1184,0.2664 -0.0552,0.0937 -0.16349,0.20209 -0.2368,0.26641 l -9.1169,7.78488 c 0,0 -0.87748,0.8288 -2.19042,0.8288 l -7.99208,0 -7.90328,0 0,5.24812 c 0,0 -0.9203,0.97843 -2.39762,0.97681 -1.47734,-0.002 -2.36804,-0.97681 -2.36804,-0.97681 l 0,-5.24812 -7.78488,0 -8.11048,0 c -1.31293,0 -2.16081,-0.8288 -2.16081,-0.8288 l -9.14649,-7.78488 c -0.0733,-0.0643 -0.18158,-0.17273 -0.23681,-0.26641 -0.0552,-0.0937 -0.0762,-0.12227 -0.1184,-0.2664 -0.0418,-0.14413 -0.0589,-0.21196 -0.0592,-0.3848 z m 4.02564,0.0592 c 4.4e-4,0.32586 0.3256,0.6216 0.3256,0.6216 l 5.77206,4.91365 c 0,0 0.25557,0.23255 0.5328,0.11841 0,0 0.26641,-0.0372 0.26641,-0.35521 l 0,-5.29845 0,-5.29846 c 0,-0.31795 -0.26641,-0.3552 -0.26641,-0.3552 -0.27723,-0.11416 -0.5328,0.1184 -0.5328,0.1184 l -5.77206,4.94325 c 0,0 -0.32604,0.26617 -0.3256,0.59201 z"
           style="fill:#00ff00;fill-opacity:1;stroke:none"
           sodipodi:nodetypes="cccccsccscccccscccscccccccscccccscccscscccs" onclick="try{ parent.loadDevice(evt,0);}catch(e){}" />
        <path
           sodipodi:nodetypes="cccccsccscccccscccscccccccscccccscccscscccs"
           style="fill:#00ff00;fill-opacity:1;stroke:none"
           d="m 455.29212,776.15154 c -3.3e-4,-0.17285 0.093,-0.3361 0.1776,-0.47361 0.0269,-0.0431 0.0603,-0.11229 0.0888,-0.148 0.0583,-0.073 0.11518,-0.12276 0.1776,-0.1776 0.0475,-0.0421 9.1169,-7.78488 9.1169,-7.78488 0,0 0.84788,-0.82881 2.16081,-0.82881 l 8.11048,0 20.45382,0 7.99208,0 c 1.31294,0 2.19042,0.82881 2.19042,0.82881 0,0 9.06944,7.74273 9.11689,7.78488 0.0624,0.0548 0.11935,0.10457 0.17761,0.1776 0.0285,0.0357 0.0619,0.1049 0.0888,0.148 0.0846,0.13751 0.14832,0.30076 0.148,0.47361 -3.8e-4,0.17284 -0.0171,0.24067 -0.0592,0.3848 -0.0421,0.14413 -0.0632,0.17272 -0.1184,0.2664 -0.0552,0.0937 -0.16349,0.20209 -0.2368,0.26641 l -9.1169,7.78488 c 0,0 -0.87748,0.8288 -2.19042,0.8288 l -7.99208,0 -7.90328,0 0,5.24812 c 0,0 -0.9203,0.97843 -2.39762,0.97681 -1.47734,-0.002 -2.36804,-0.97681 -2.36804,-0.97681 l 0,-5.24812 -7.78488,0 -8.11048,0 c -1.31293,0 -2.16081,-0.8288 -2.16081,-0.8288 l -9.14649,-7.78488 c -0.0733,-0.0643 -0.18158,-0.17273 -0.23681,-0.26641 -0.0552,-0.0937 -0.0762,-0.12227 -0.1184,-0.2664 -0.0418,-0.14413 -0.0589,-0.21196 -0.0592,-0.3848 z m 4.02564,0.0592 c 4.4e-4,0.32586 0.3256,0.6216 0.3256,0.6216 l 5.77206,4.91365 c 0,0 0.25557,0.23255 0.5328,0.11841 0,0 0.26641,-0.0372 0.26641,-0.35521 l 0,-5.29845 0,-5.29846 c 0,-0.31795 -0.26641,-0.3552 -0.26641,-0.3552 -0.27723,-0.11416 -0.5328,0.1184 -0.5328,0.1184 l -5.77206,4.94325 c 0,0 -0.32604,0.26617 -0.3256,0.59201 z"
           id="In3"
           inkscape:connector-curvature="0" onclick="try{ parent.loadDevice(evt,0);}catch(e){}" />
        <path
           inkscape:connector-curvature="0"
           id="In4"
           d="m 515.29193,812.11756 c 3.2e-4,-0.17285 -0.093,-0.3657 -0.17761,-0.5032 -0.0269,-0.0431 -0.0604,-0.0827 -0.0888,-0.11841 -0.0583,-0.073 -0.11518,-0.12275 -0.1776,-0.1776 -0.0475,-0.0421 -9.11689,-7.78488 -9.11689,-7.78488 0,0 -0.84789,-0.8288 -2.16083,-0.8288 l -8.11048,0 -20.45382,0 -7.99208,0 c -1.31292,0 -2.19041,0.8288 -2.19041,0.8288 0,0 -9.06944,7.74273 -9.11689,7.78488 -0.0624,0.0548 -0.11935,0.10457 -0.1776,0.1776 -0.0285,0.0357 -0.062,0.0753 -0.0888,0.11841 -0.0846,0.1375 -0.14832,0.33035 -0.148,0.5032 3.8e-4,0.17285 0.0171,0.21108 0.0592,0.3552 0.0421,0.14413 0.0632,0.20233 0.1184,0.29601 0.0552,0.0937 0.16349,0.20208 0.2368,0.2664 l 9.1169,7.78488 c 0,0 0.87748,0.82881 2.19041,0.82881 l 7.99208,0 7.90328,0 0,5.07051 c 0,0 0.9203,0.97842 2.39764,0.97681 1.47732,-0.002 2.36802,-0.97681 2.36802,-0.97681 l 0,-5.07051 7.78488,0 8.11048,0 c 1.31294,0 2.16082,-0.82881 2.16082,-0.82881 l 9.1465,-7.78488 c 0.0733,-0.0643 0.18158,-0.17272 0.2368,-0.2664 0.0552,-0.0937 0.0762,-0.15188 0.1184,-0.29601 0.0418,-0.14412 0.0589,-0.18235 0.0592,-0.3552 z m -4.02564,0.0592 c -4.5e-4,0.32586 -0.32561,0.62161 -0.32561,0.62161 l -5.77206,4.91365 c 0,0 -0.25556,0.23255 -0.5328,0.1184 0,0 -0.2664,-0.0372 -0.2664,-0.3552 l 0,-5.29846 0,-5.29845 c 0,-0.31795 0.2664,-0.35521 0.2664,-0.35521 0.27724,-0.11415 0.5328,0.11841 0.5328,0.11841 l 5.77206,4.91365 c 0,0 0.32604,0.29576 0.32561,0.6216 z m -45.05166,-5.29845 0,5.29845 0,5.29846 c 0,0.31799 -0.26641,0.3552 -0.26641,0.3552 -0.27723,0.11415 -0.5328,-0.1184 -0.5328,-0.1184 l -5.77206,-4.91365 c 0,0 -0.35476,-0.29575 -0.3552,-0.62161 -4.5e-4,-0.32584 0.3552,-0.6216 0.3552,-0.6216 l 5.77206,-4.91365 c 0,0 0.25557,-0.23256 0.5328,-0.11841 0,0 0.26641,0.0372 0.26641,0.35521 z"
           style="fill:#00ff00;fill-opacity:1;stroke:none"
           sodipodi:nodetypes="cccccsccscccccccccscccccccscccccccccscsccccscscccccccs" onclick="try{ parent.loadDevice(evt,0);}catch(e){}" />
      </g>
      <g
         id="g4705"
         transform="translate(0,-64.841602)">
        <rect
           transform="scale(-1,-1)"
           y="-558.29022"
           x="-477.11282"
           height="11.470589"
           width="60"
           id="rect4269"
           style="fill:#00ff00;fill-opacity:1;stroke:none" />
        <path
           sodipodi:nodetypes="cccccsccscccccccccscccccccscccccccccscsccccscscccccccs"
           style="fill:#00ff00;fill-opacity:1;stroke:none"
           d="m 417.11268,584.66577 c -3e-4,0.17285 0.093,0.3657 0.1777,0.5032 0.027,0.0431 0.06,0.0827 0.089,0.11841 0.058,0.073 0.1151,0.12275 0.1776,0.1776 0.048,0.0421 9.1168,7.78488 9.1168,7.78488 0,0 0.8479,0.8288 2.1609,0.8288 l 8.1105,0 20.4538,0 7.9921,0 c 1.3129,0 2.1904,-0.8288 2.1904,-0.8288 0,0 9.0694,-7.74273 9.1169,-7.78488 0.062,-0.0548 0.1193,-0.10457 0.1776,-0.1776 0.028,-0.0357 0.062,-0.0753 0.089,-0.11841 0.085,-0.1375 0.1483,-0.33035 0.148,-0.5032 -4e-4,-0.17285 -0.017,-0.21108 -0.059,-0.3552 -0.042,-0.14413 -0.063,-0.20233 -0.1184,-0.29601 -0.055,-0.0937 -0.1635,-0.20208 -0.2368,-0.2664 l -9.1169,-7.78488 c 0,0 -0.8775,-0.82881 -2.1905,-0.82881 l -7.992,0 -7.9033,0 0,-5.07051 c 0,0 -0.9203,-0.97842 -2.3977,-0.97681 -1.4773,0.002 -2.368,0.97681 -2.368,0.97681 l 0,5.07051 -7.7849,0 -8.1104,0 c -1.313,0 -2.1609,0.82881 -2.1609,0.82881 l -9.1465,7.78488 c -0.073,0.0643 -0.1815,0.17272 -0.2368,0.2664 -0.055,0.0937 -0.076,0.15188 -0.1184,0.29601 -0.042,0.14412 -0.059,0.18235 -0.059,0.3552 z m 4.0257,-0.0592 c 4e-4,-0.32586 0.3256,-0.62161 0.3256,-0.62161 l 5.7721,-4.91365 c 0,0 0.2555,-0.23255 0.5328,-0.1184 0,0 0.2664,0.0372 0.2664,0.3552 l 0,5.29846 0,5.29845 c 0,0.31795 -0.2664,0.35521 -0.2664,0.35521 -0.2773,0.11415 -0.5328,-0.11841 -0.5328,-0.11841 l -5.7721,-4.91365 c 0,0 -0.326,-0.29576 -0.3256,-0.6216 z m 45.0516,5.29845 0,-5.29845 0,-5.29846 c 0,-0.31799 0.2665,-0.3552 0.2665,-0.3552 0.2772,-0.11415 0.5328,0.1184 0.5328,0.1184 l 5.772,4.91365 c 0,0 0.3548,0.29575 0.3552,0.62161 5e-4,0.32584 -0.3552,0.6216 -0.3552,0.6216 l -5.772,4.91365 c 0,0 -0.2556,0.23256 -0.5328,0.11841 0,0 -0.2665,-0.0372 -0.2665,-0.35521 z"
           id="In5"
           inkscape:connector-curvature="0" onclick="try{ parent.loadDevice(evt,0);}catch(e){}" />
        <path
           sodipodi:nodetypes="cccccsccscccccscccscccccccscccccscccscscccs"
           style="fill:#ffff00;fill-opacity:1;stroke:none"
           d="m 477.11274,620.6318 c 3.3e-4,0.17285 -0.093,0.3361 -0.1776,0.47361 -0.0269,0.0431 -0.0603,0.11229 -0.0888,0.148 -0.0583,0.073 -0.11518,0.12276 -0.1776,0.1776 -0.0475,0.0421 -9.1169,7.78488 -9.1169,7.78488 0,0 -0.84788,0.82881 -2.16081,0.82881 l -8.11048,0 -20.45382,0 -7.99208,0 c -1.31294,0 -2.19042,-0.82881 -2.19042,-0.82881 0,0 -9.06944,-7.74273 -9.11689,-7.78488 -0.0624,-0.0548 -0.11935,-0.10457 -0.17761,-0.1776 -0.0285,-0.0357 -0.0619,-0.1049 -0.0888,-0.148 -0.0846,-0.13751 -0.14832,-0.30076 -0.148,-0.47361 3.8e-4,-0.17284 0.0171,-0.24067 0.0592,-0.3848 0.0421,-0.14413 0.0632,-0.17272 0.1184,-0.2664 0.0552,-0.0937 0.16349,-0.20209 0.2368,-0.26641 l 9.1169,-7.78488 c 0,0 0.87748,-0.8288 2.19042,-0.8288 l 7.99208,0 7.90328,0 0,-5.24812 c 0,0 0.9203,-0.97843 2.39762,-0.97681 1.47734,0.002 2.36804,0.97681 2.36804,0.97681 l 0,5.24812 7.78488,0 8.11048,0 c 1.31293,0 2.16081,0.8288 2.16081,0.8288 l 9.14649,7.78488 c 0.0733,0.0643 0.18158,0.17273 0.23681,0.26641 0.0552,0.0937 0.0762,0.12227 0.1184,0.2664 0.0418,0.14413 0.0589,0.21196 0.0592,0.3848 z m -4.02564,-0.0592 c -4.4e-4,-0.32586 -0.3256,-0.6216 -0.3256,-0.6216 l -5.77206,-4.91365 c 0,0 -0.25557,-0.23255 -0.5328,-0.11841 0,0 -0.26641,0.0372 -0.26641,0.35521 l 0,5.29845 0,5.29846 c 0,0.31795 0.26641,0.3552 0.26641,0.3552 0.27723,0.11416 0.5328,-0.1184 0.5328,-0.1184 l 5.77206,-4.94325 c 0,0 0.32604,-0.26617 0.3256,-0.59201 z"
           id="In6"
           inkscape:connector-curvature="0" onclick="try{ parent.loadDevice(evt,0);}catch(e){}" />
        <path
           inkscape:connector-curvature="0"
           id="In7"
           d="m 477.11274,656.59783 c 3.3e-4,0.17285 -0.093,0.3361 -0.1776,0.47361 -0.0269,0.0431 -0.0603,0.11229 -0.0888,0.148 -0.0583,0.073 -0.11518,0.12276 -0.1776,0.1776 -0.0475,0.0421 -9.1169,7.78488 -9.1169,7.78488 0,0 -0.84788,0.82881 -2.16081,0.82881 l -8.11048,0 -20.45382,0 -7.99208,0 c -1.31294,0 -2.19042,-0.82881 -2.19042,-0.82881 0,0 -9.06944,-7.74273 -9.11689,-7.78488 -0.0624,-0.0548 -0.11935,-0.10457 -0.17761,-0.1776 -0.0285,-0.0357 -0.0619,-0.1049 -0.0888,-0.148 -0.0846,-0.13751 -0.14832,-0.30076 -0.148,-0.47361 3.8e-4,-0.17284 0.0171,-0.24067 0.0592,-0.3848 0.0421,-0.14413 0.0632,-0.17272 0.1184,-0.2664 0.0552,-0.0937 0.16349,-0.20209 0.2368,-0.26641 l 9.1169,-7.78488 c 0,0 0.87748,-0.8288 2.19042,-0.8288 l 7.99208,0 7.90328,0 0,-5.24812 c 0,0 0.9203,-0.97843 2.39762,-0.97681 1.47734,0.002 2.36804,0.97681 2.36804,0.97681 l 0,5.24812 7.78488,0 8.11048,0 c 1.31293,0 2.16081,0.8288 2.16081,0.8288 l 9.14649,7.78488 c 0.0733,0.0643 0.18158,0.17273 0.23681,0.26641 0.0552,0.0937 0.0762,0.12227 0.1184,0.2664 0.0418,0.14413 0.0589,0.21196 0.0592,0.3848 z m -4.02564,-0.0592 c -4.4e-4,-0.32586 -0.3256,-0.6216 -0.3256,-0.6216 l -5.77206,-4.91365 c 0,0 -0.25557,-0.23255 -0.5328,-0.11841 0,0 -0.26641,0.0372 -0.26641,0.35521 l 0,5.29845 0,5.29846 c 0,0.31795 0.26641,0.3552 0.26641,0.3552 0.27723,0.11416 0.5328,-0.1184 0.5328,-0.1184 l 5.77206,-4.94325 c 0,0 0.32604,-0.26617 0.3256,-0.59201 z"
           style="fill:#ff0000;fill-opacity:1;stroke:none"
           sodipodi:nodetypes="cccccsccscccccscccscccccccscccccscccscscccs" onclick="try{ parent.loadDevice(evt);}catch(e){}" />
        <path
           sodipodi:nodetypes="cccccsccscccccscccscccccccscccccscccscscccs"
           style="fill:#00ff00;fill-opacity:1;stroke:none"
           d="m 477.11274,692.56386 c 3.3e-4,0.17285 -0.093,0.3361 -0.1776,0.47361 -0.0269,0.0431 -0.0603,0.11229 -0.0888,0.148 -0.0583,0.073 -0.11518,0.12276 -0.1776,0.1776 -0.0475,0.0421 -9.1169,7.78488 -9.1169,7.78488 0,0 -0.84788,0.82881 -2.16081,0.82881 l -8.11048,0 -20.45382,0 -7.99208,0 c -1.31294,0 -2.19042,-0.82881 -2.19042,-0.82881 0,0 -9.06944,-7.74273 -9.11689,-7.78488 -0.0624,-0.0548 -0.11935,-0.10457 -0.17761,-0.1776 -0.0285,-0.0357 -0.0619,-0.1049 -0.0888,-0.148 -0.0846,-0.13751 -0.14832,-0.30076 -0.148,-0.47361 3.8e-4,-0.17284 0.0171,-0.24067 0.0592,-0.3848 0.0421,-0.14413 0.0632,-0.17272 0.1184,-0.2664 0.0552,-0.0937 0.16349,-0.20209 0.2368,-0.26641 l 9.1169,-7.78488 c 0,0 0.87748,-0.8288 2.19042,-0.8288 l 7.99208,0 7.90328,0 0,-5.24812 c 0,0 0.9203,-0.97843 2.39762,-0.97681 1.47734,0.002 2.36804,0.97681 2.36804,0.97681 l 0,5.24812 7.78488,0 8.11048,0 c 1.31293,0 2.16081,0.8288 2.16081,0.8288 l 9.14649,7.78488 c 0.0733,0.0643 0.18158,0.17273 0.23681,0.26641 0.0552,0.0937 0.0762,0.12227 0.1184,0.2664 0.0418,0.14413 0.0589,0.21196 0.0592,0.3848 z m -4.02564,-0.0592 c -4.4e-4,-0.32586 -0.3256,-0.6216 -0.3256,-0.6216 l -5.77206,-4.91365 c 0,0 -0.25557,-0.23255 -0.5328,-0.11841 0,0 -0.26641,0.0372 -0.26641,0.35521 l 0,5.29845 0,5.29846 c 0,0.31795 0.26641,0.3552 0.26641,0.3552 0.27723,0.11416 0.5328,-0.1184 0.5328,-0.1184 l 5.77206,-4.94325 c 0,0 0.32604,-0.26617 0.3256,-0.59201 z"
           id="In8"
           inkscape:connector-curvature="0" onclick="try{ parent.loadDevice(evt,0);}catch(e){}" />
        <path
           inkscape:connector-curvature="0"
           id="Out6"
           d="m 417.11293,728.5299 c -3.3e-4,0.17285 0.093,0.3361 0.1776,0.47361 0.0269,0.0431 0.0603,0.11229 0.0888,0.148 0.0583,0.073 0.11518,0.12276 0.1776,0.1776 0.0475,0.0421 9.1169,7.78488 9.1169,7.78488 0,0 0.84788,0.82881 2.16081,0.82881 l 8.11048,0 20.45382,0 7.99208,0 c 1.31294,0 2.19042,-0.82881 2.19042,-0.82881 0,0 9.06944,-7.74273 9.11689,-7.78488 0.0624,-0.0548 0.11935,-0.10457 0.17761,-0.1776 0.0285,-0.0357 0.0619,-0.1049 0.0888,-0.148 0.0846,-0.13751 0.14832,-0.30076 0.148,-0.47361 -3.8e-4,-0.17284 -0.0171,-0.24067 -0.0592,-0.3848 -0.0421,-0.14413 -0.0632,-0.17272 -0.1184,-0.2664 -0.0552,-0.0937 -0.16349,-0.20209 -0.2368,-0.26641 l -9.1169,-7.78488 c 0,0 -0.87748,-0.8288 -2.19042,-0.8288 l -7.99208,0 -7.90328,0 0,-5.24812 c 0,0 -0.9203,-0.97843 -2.39762,-0.97681 -1.47734,0.002 -2.36804,0.97681 -2.36804,0.97681 l 0,5.24812 -7.78488,0 -8.11048,0 c -1.31293,0 -2.16081,0.8288 -2.16081,0.8288 l -9.14649,7.78488 c -0.0733,0.0643 -0.18158,0.17273 -0.23681,0.26641 -0.0552,0.0937 -0.0762,0.12227 -0.1184,0.2664 -0.0418,0.14413 -0.0589,0.21196 -0.0592,0.3848 z m 4.02564,-0.0592 c 4.4e-4,-0.32586 0.3256,-0.6216 0.3256,-0.6216 l 5.77206,-4.91365 c 0,0 0.25557,-0.23255 0.5328,-0.11841 0,0 0.26641,0.0372 0.26641,0.35521 l 0,5.29845 0,5.29846 c 0,0.31795 -0.26641,0.3552 -0.26641,0.3552 -0.27723,0.11416 -0.5328,-0.1184 -0.5328,-0.1184 l -5.77206,-4.94325 c 0,0 -0.32604,-0.26617 -0.3256,-0.59201 z"
           style="fill:#00ff00;fill-opacity:1;stroke:none"
           sodipodi:nodetypes="cccccsccscccccscccscccccccscccccscccscscccs" onclick="try{ parent.loadDevice(evt,0);}catch(e){}" />
        <path
           inkscape:connector-curvature="0"
           id="Out7"
           d="m 417.11293,764.49593 c -3.3e-4,0.17285 0.093,0.3361 0.1776,0.47361 0.0269,0.0431 0.0603,0.11229 0.0888,0.148 0.0583,0.073 0.11518,0.12276 0.1776,0.1776 0.0475,0.0421 9.1169,7.78488 9.1169,7.78488 0,0 0.84788,0.82881 2.16081,0.82881 l 8.11048,0 20.45382,0 7.99208,0 c 1.31294,0 2.19042,-0.82881 2.19042,-0.82881 0,0 9.06944,-7.74273 9.11689,-7.78488 0.0624,-0.0548 0.11935,-0.10457 0.17761,-0.1776 0.0285,-0.0357 0.0619,-0.1049 0.0888,-0.148 0.0846,-0.13751 0.14832,-0.30076 0.148,-0.47361 -3.8e-4,-0.17284 -0.0171,-0.24067 -0.0592,-0.3848 -0.0421,-0.14413 -0.0632,-0.17272 -0.1184,-0.2664 -0.0552,-0.0937 -0.16349,-0.20209 -0.2368,-0.26641 l -9.1169,-7.78488 c 0,0 -0.87748,-0.8288 -2.19042,-0.8288 l -7.99208,0 -7.90328,0 0,-5.24812 c 0,0 -0.9203,-0.97843 -2.39762,-0.97681 -1.47734,0.002 -2.36804,0.97681 -2.36804,0.97681 l 0,5.24812 -7.78488,0 -8.11048,0 c -1.31293,0 -2.16081,0.8288 -2.16081,0.8288 l -9.14649,7.78488 c -0.0733,0.0643 -0.18158,0.17273 -0.23681,0.26641 -0.0552,0.0937 -0.0762,0.12227 -0.1184,0.2664 -0.0418,0.14413 -0.0589,0.21196 -0.0592,0.3848 z m 4.02564,-0.0592 c 4.4e-4,-0.32586 0.3256,-0.6216 0.3256,-0.6216 l 5.77206,-4.91365 c 0,0 0.25557,-0.23255 0.5328,-0.11841 0,0 0.26641,0.0372 0.26641,0.35521 l 0,5.29845 0,5.29846 c 0,0.31795 -0.26641,0.3552 -0.26641,0.3552 -0.27723,0.11416 -0.5328,-0.1184 -0.5328,-0.1184 l -5.77206,-4.94325 c 0,0 -0.32604,-0.26617 -0.3256,-0.59201 z"
           style="fill:#cccccc;fill-opacity:1;stroke:none"
           sodipodi:nodetypes="cccccsccscccccscccscccccccscccccscccscscccs" onclick="try{ parent.loadDevice(evt,0);}catch(e){}" />
        <path
           sodipodi:nodetypes="cccccsccscccccscccscccccccscccccscccscscccs"
           style="fill:#ffffff;fill-opacity:1;stroke:none"
           d="m 417.11293,800.46198 c -3.3e-4,0.17285 0.093,0.3361 0.1776,0.47361 0.0269,0.0431 0.0603,0.11229 0.0888,0.148 0.0583,0.073 0.11518,0.12276 0.1776,0.1776 0.0475,0.0421 9.1169,7.78488 9.1169,7.78488 0,0 0.84788,0.82881 2.16081,0.82881 l 8.11048,0 20.45382,0 7.99208,0 c 1.31294,0 2.19042,-0.82881 2.19042,-0.82881 0,0 9.06944,-7.74273 9.11689,-7.78488 0.0624,-0.0548 0.11935,-0.10457 0.17761,-0.1776 0.0285,-0.0357 0.0619,-0.1049 0.0888,-0.148 0.0846,-0.13751 0.14832,-0.30076 0.148,-0.47361 -3.8e-4,-0.17284 -0.0171,-0.24067 -0.0592,-0.3848 -0.0421,-0.14413 -0.0632,-0.17272 -0.1184,-0.2664 -0.0552,-0.0937 -0.16349,-0.20209 -0.2368,-0.26641 l -9.1169,-7.78488 c 0,0 -0.87748,-0.8288 -2.19042,-0.8288 l -7.99208,0 -7.90328,0 0,-5.24812 c 0,0 -0.9203,-0.97843 -2.39762,-0.97681 -1.47734,0.002 -2.36804,0.97681 -2.36804,0.97681 l 0,5.24812 -7.78488,0 -8.11048,0 c -1.31293,0 -2.16081,0.8288 -2.16081,0.8288 l -9.14649,7.78488 c -0.0733,0.0643 -0.18158,0.17273 -0.23681,0.26641 -0.0552,0.0937 -0.0762,0.12227 -0.1184,0.2664 -0.0418,0.14413 -0.0589,0.21196 -0.0592,0.3848 z m 4.02564,-0.0592 c 4.4e-4,-0.32586 0.3256,-0.6216 0.3256,-0.6216 l 5.77206,-4.91365 c 0,0 0.25557,-0.23255 0.5328,-0.11841 0,0 0.26641,0.0372 0.26641,0.35521 l 0,5.29845 0,5.29846 c 0,0.31795 -0.26641,0.3552 -0.26641,0.3552 -0.27723,0.11416 -0.5328,-0.1184 -0.5328,-0.1184 l -5.77206,-4.94325 c 0,0 -0.32604,-0.26617 -0.3256,-0.59201 z"
           id="Out8"
           inkscape:connector-curvature="0" onclick="try{ parent.loadDevice(evt,0);}catch(e){}" />
        <path
           inkscape:connector-curvature="0"
           id="Out9"
           d="m 417.11293,836.25041 c -3.2e-4,0.17285 0.093,0.3657 0.17761,0.5032 0.0269,0.0431 0.0604,0.0827 0.0888,0.11841 0.0583,0.073 0.11518,0.12275 0.1776,0.1776 0.0475,0.0421 9.11689,7.78488 9.11689,7.78488 0,0 0.84789,0.8288 2.16083,0.8288 l 8.11048,0 20.45382,0 7.99208,0 c 1.31292,0 2.19041,-0.8288 2.19041,-0.8288 0,0 9.06944,-7.74273 9.11689,-7.78488 0.0624,-0.0548 0.11935,-0.10457 0.1776,-0.1776 0.0285,-0.0357 0.062,-0.0753 0.0888,-0.11841 0.0846,-0.1375 0.14832,-0.33035 0.148,-0.5032 -3.8e-4,-0.17285 -0.0171,-0.21108 -0.0592,-0.3552 -0.0421,-0.14413 -0.0632,-0.20233 -0.1184,-0.29601 -0.0552,-0.0937 -0.16349,-0.20208 -0.2368,-0.2664 l -9.1169,-7.78488 c 0,0 -0.87748,-0.82881 -2.19041,-0.82881 l -7.99208,0 -7.90328,0 0,-5.07051 c 0,0 -0.9203,-0.97842 -2.39764,-0.97681 -1.47732,0.002 -2.36802,0.97681 -2.36802,0.97681 l 0,5.07051 -7.78488,0 -8.11048,0 c -1.31294,0 -2.16082,0.82881 -2.16082,0.82881 l -9.1465,7.78488 c -0.0733,0.0643 -0.18158,0.17272 -0.2368,0.2664 -0.0552,0.0937 -0.0762,0.15188 -0.1184,0.29601 -0.0418,0.14412 -0.0589,0.18235 -0.0592,0.3552 z m 4.02564,-0.0592 c 4.5e-4,-0.32586 0.32561,-0.62161 0.32561,-0.62161 l 5.77206,-4.91365 c 0,0 0.25556,-0.23255 0.5328,-0.1184 0,0 0.2664,0.0372 0.2664,0.3552 l 0,5.29846 0,5.29845 c 0,0.31795 -0.2664,0.35521 -0.2664,0.35521 -0.27724,0.11415 -0.5328,-0.11841 -0.5328,-0.11841 l -5.77206,-4.91365 c 0,0 -0.32604,-0.29576 -0.32561,-0.6216 z m 45.05166,5.29845 0,-5.29845 0,-5.29846 c 0,-0.31799 0.26641,-0.3552 0.26641,-0.3552 0.27723,-0.11415 0.5328,0.1184 0.5328,0.1184 l 5.77206,4.91365 c 0,0 0.35476,0.29575 0.3552,0.62161 4.5e-4,0.32584 -0.3552,0.6216 -0.3552,0.6216 l -5.77206,4.91365 c 0,0 -0.25557,0.23256 -0.5328,0.11841 0,0 -0.26641,-0.0372 -0.26641,-0.35521 z"
           style="fill:#00ff00;fill-opacity:1;stroke:none"
           sodipodi:nodetypes="cccccsccscccccccccscccccccscccccccccscsccccscscccccccs" onclick="try{ parent.loadDevice(evt,0);}catch(e){}" />
        <path
           sodipodi:nodetypes="cccccsccscccccccccscccccccscccccccccscsccccscscccccccs"
           style="fill:#00ff00;fill-opacity:1;stroke:none"
           d="m 417.11293,872.03884 c -3.2e-4,0.17285 0.093,0.3657 0.17761,0.5032 0.0269,0.0431 0.0604,0.0827 0.0888,0.11841 0.0583,0.073 0.11518,0.12275 0.1776,0.1776 0.0475,0.0421 9.11689,7.78488 9.11689,7.78488 0,0 0.84789,0.8288 2.16083,0.8288 l 8.11048,0 20.45382,0 7.99208,0 c 1.31292,0 2.19041,-0.8288 2.19041,-0.8288 0,0 9.06944,-7.74273 9.11689,-7.78488 0.0624,-0.0548 0.11935,-0.10457 0.1776,-0.1776 0.0285,-0.0357 0.062,-0.0753 0.0888,-0.11841 0.0846,-0.1375 0.14832,-0.33035 0.148,-0.5032 -3.8e-4,-0.17285 -0.0171,-0.21108 -0.0592,-0.3552 -0.0421,-0.14413 -0.0632,-0.20233 -0.1184,-0.29601 -0.0552,-0.0937 -0.16349,-0.20208 -0.2368,-0.2664 l -9.1169,-7.78488 c 0,0 -0.87748,-0.82881 -2.19041,-0.82881 l -7.99208,0 -7.90328,0 0,-5.07051 c 0,0 -0.9203,-0.97842 -2.39764,-0.97681 -1.47732,0.002 -2.36802,0.97681 -2.36802,0.97681 l 0,5.07051 -7.78488,0 -8.11048,0 c -1.31294,0 -2.16082,0.82881 -2.16082,0.82881 l -9.1465,7.78488 c -0.0733,0.0643 -0.18158,0.17272 -0.2368,0.2664 -0.0552,0.0937 -0.0762,0.15188 -0.1184,0.29601 -0.0418,0.14412 -0.0589,0.18235 -0.0592,0.3552 z m 4.02564,-0.0592 c 4.5e-4,-0.32586 0.32561,-0.62161 0.32561,-0.62161 l 5.77206,-4.91365 c 0,0 0.25556,-0.23255 0.5328,-0.1184 0,0 0.2664,0.0372 0.2664,0.3552 l 0,5.29846 0,5.29845 c 0,0.31795 -0.2664,0.35521 -0.2664,0.35521 -0.27724,0.11415 -0.5328,-0.11841 -0.5328,-0.11841 l -5.77206,-4.91365 c 0,0 -0.32604,-0.29576 -0.32561,-0.6216 z m 45.05166,5.29845 0,-5.29845 0,-5.29846 c 0,-0.31799 0.26641,-0.3552 0.26641,-0.3552 0.27723,-0.11415 0.5328,0.1184 0.5328,0.1184 l 5.77206,4.91365 c 0,0 0.35476,0.29575 0.3552,0.62161 4.5e-4,0.32584 -0.3552,0.6216 -0.3552,0.6216 l -5.77206,4.91365 c 0,0 -0.25557,0.23256 -0.5328,0.11841 0,0 -0.26641,-0.0372 -0.26641,-0.35521 z"
           id="Out10"
           inkscape:connector-curvature="0" onclick="try{ parent.loadDevice(evt,0);}catch(e){}" />
      </g>
      <g
         id="g4795"
         transform="translate(0,-29.704274)">
        <rect
           transform="matrix(0,1,-1,0,0,0)"
           y="-497.66101"
           x="952.1153"
           height="11.470589"
           width="60"
           id="rect4753"
           style="fill:#00ff00;fill-opacity:1;stroke:none" />
        <path
           sodipodi:nodetypes="cccccsccscccccccccscccccccscccccccccscsccccscscccccccs"
           style="fill:#00ff00;fill-opacity:1;stroke:none"
           d="m 811.40958,1012.1152 c 0.17285,3e-4 0.3657,-0.093 0.5032,-0.1776 0.0431,-0.027 0.0827,-0.06 0.11841,-0.089 0.073,-0.058 0.12275,-0.1152 0.1776,-0.1776 0.0421,-0.048 7.78488,-9.1169 7.78488,-9.1169 0,0 0.8288,-0.8479 0.8288,-2.1608 l 0,-8.11053 0,-20.45382 0,-7.99208 c 0,-1.31292 -0.8288,-2.19041 -0.8288,-2.19041 0,0 -7.74273,-9.06944 -7.78488,-9.11689 -0.0548,-0.0624 -0.10457,-0.11935 -0.1776,-0.1776 -0.0357,-0.0285 -0.0753,-0.062 -0.11841,-0.0888 -0.1375,-0.0846 -0.33035,-0.14832 -0.5032,-0.148 -0.17285,3.8e-4 -0.21108,0.0171 -0.3552,0.0592 -0.14413,0.0421 -0.20233,0.0632 -0.29601,0.1184 -0.0937,0.0552 -0.20208,0.16349 -0.2664,0.2368 l -7.78488,9.1169 c 0,0 -0.82881,0.87748 -0.82881,2.19041 l 0,7.99208 0,7.90328 -5.07051,0 c 0,0 -0.97842,0.9203 -0.97681,2.39764 0.002,1.47732 0.97681,2.36802 0.97681,2.36802 l 5.07051,0 0,7.78488 0,8.11052 c 0,1.3129 0.82881,2.1608 0.82881,2.1608 l 7.78488,9.1465 c 0.0643,0.073 0.17272,0.1816 0.2664,0.2368 0.0937,0.055 0.15188,0.076 0.29601,0.1184 0.14412,0.042 0.18235,0.059 0.3552,0.059 z m -0.0592,-4.0257 c -0.32586,-4e-4 -0.62161,-0.3256 -0.62161,-0.3256 l -4.91365,-5.772 c 0,0 -0.23255,-0.2556 -0.1184,-0.5328 0,0 0.0372,-0.2664 0.3552,-0.2664 l 5.29846,0 5.29845,0 c 0.31795,0 0.35521,0.2664 0.35521,0.2664 0.11415,0.2772 -0.11841,0.5328 -0.11841,0.5328 l -4.91365,5.772 c 0,0 -0.29576,0.3261 -0.6216,0.3256 z m 5.29845,-45.05162 -5.29845,0 -5.29846,0 c -0.31799,0 -0.3552,-0.26641 -0.3552,-0.26641 -0.11415,-0.27723 0.1184,-0.5328 0.1184,-0.5328 l 4.91365,-5.77206 c 0,0 0.29575,-0.35476 0.62161,-0.3552 0.32584,-4.5e-4 0.6216,0.3552 0.6216,0.3552 l 4.91365,5.77206 c 0,0 0.23256,0.25557 0.11841,0.5328 0,0 -0.0372,0.26641 -0.35521,0.26641 z"
           id="Out11"
           inkscape:connector-curvature="0" onclick="try{ parent.loadDevice(evt,0);}catch(e){}" />
        <path
           sodipodi:nodetypes="cccccsccscccccscccscccccccscccccscccscscccs"
           style="fill:#00ff00;fill-opacity:1;stroke:none"
           d="m 775.62115,1012.1152 c 0.17285,3e-4 0.3361,-0.093 0.47361,-0.1776 0.0431,-0.027 0.11229,-0.06 0.148,-0.089 0.073,-0.058 0.12276,-0.1152 0.1776,-0.1776 0.0421,-0.048 7.78488,-9.1169 7.78488,-9.1169 0,0 0.82881,-0.8479 0.82881,-2.1608 l 0,-8.11051 0,-20.45382 0,-7.99208 c 0,-1.31294 -0.82881,-2.19042 -0.82881,-2.19042 0,0 -7.74273,-9.06944 -7.78488,-9.11689 -0.0548,-0.0624 -0.10457,-0.11935 -0.1776,-0.17761 -0.0357,-0.0285 -0.1049,-0.0619 -0.148,-0.0888 -0.13751,-0.0846 -0.30076,-0.14832 -0.47361,-0.148 -0.17284,3.8e-4 -0.24067,0.0171 -0.3848,0.0592 -0.14413,0.0421 -0.17272,0.0632 -0.2664,0.1184 -0.0937,0.0552 -0.20209,0.16349 -0.26641,0.2368 l -7.78488,9.1169 c 0,0 -0.8288,0.87748 -0.8288,2.19042 l 0,7.99208 0,7.90328 -5.24812,0 c 0,0 -0.97843,0.9203 -0.97681,2.39762 0.002,1.47734 0.97681,2.36804 0.97681,2.36804 l 5.24812,0 0,7.78488 0,8.11051 c 0,1.3129 0.8288,2.1608 0.8288,2.1608 l 7.78488,9.1465 c 0.0643,0.073 0.17273,0.1816 0.26641,0.2368 0.0937,0.055 0.12227,0.076 0.2664,0.1184 0.14413,0.042 0.21196,0.059 0.3848,0.059 z m -0.0592,-4.0257 c -0.32586,-4e-4 -0.6216,-0.3256 -0.6216,-0.3256 l -4.91365,-5.772 c 0,0 -0.23255,-0.2556 -0.11841,-0.5328 0,0 0.0372,-0.2664 0.35521,-0.2664 l 5.29845,0 5.29846,0 c 0.31795,0 0.3552,0.2664 0.3552,0.2664 0.11416,0.2772 -0.1184,0.5328 -0.1184,0.5328 l -4.94325,5.772 c 0,0 -0.26617,0.3261 -0.59201,0.3256 z"
           id="Out12"
           inkscape:connector-curvature="0" onclick="try{ parent.loadDevice(evt,0);}catch(e){}" />
        <path
           inkscape:connector-curvature="0"
           id="Out13"
           d="m 739.65511,1012.1152 c 0.17285,3e-4 0.3361,-0.093 0.47361,-0.1776 0.0431,-0.027 0.11229,-0.06 0.148,-0.089 0.073,-0.058 0.12276,-0.1152 0.1776,-0.1776 0.0421,-0.048 7.78488,-9.1169 7.78488,-9.1169 0,0 0.82881,-0.8479 0.82881,-2.1608 l 0,-8.11051 0,-20.45382 0,-7.99208 c 0,-1.31294 -0.82881,-2.19042 -0.82881,-2.19042 0,0 -7.74273,-9.06944 -7.78488,-9.11689 -0.0548,-0.0624 -0.10457,-0.11935 -0.1776,-0.17761 -0.0357,-0.0285 -0.1049,-0.0619 -0.148,-0.0888 -0.13751,-0.0846 -0.30076,-0.14832 -0.47361,-0.148 -0.17284,3.8e-4 -0.24067,0.0171 -0.3848,0.0592 -0.14413,0.0421 -0.17272,0.0632 -0.2664,0.1184 -0.0937,0.0552 -0.20209,0.16349 -0.26641,0.2368 l -7.78488,9.1169 c 0,0 -0.8288,0.87748 -0.8288,2.19042 l 0,7.99208 0,7.90328 -5.24812,0 c 0,0 -0.97843,0.9203 -0.97681,2.39762 0.002,1.47734 0.97681,2.36804 0.97681,2.36804 l 5.24812,0 0,7.78488 0,8.11051 c 0,1.3129 0.8288,2.1608 0.8288,2.1608 l 7.78488,9.1465 c 0.0643,0.073 0.17273,0.1816 0.26641,0.2368 0.0937,0.055 0.12227,0.076 0.2664,0.1184 0.14413,0.042 0.21196,0.059 0.3848,0.059 z m -0.0592,-4.0257 c -0.32586,-4e-4 -0.6216,-0.3256 -0.6216,-0.3256 l -4.91365,-5.772 c 0,0 -0.23255,-0.2556 -0.11841,-0.5328 0,0 0.0372,-0.2664 0.35521,-0.2664 l 5.29845,0 5.29846,0 c 0.31795,0 0.3552,0.2664 0.3552,0.2664 0.11416,0.2772 -0.1184,0.5328 -0.1184,0.5328 l -4.94325,5.772 c 0,0 -0.26617,0.3261 -0.59201,0.3256 z"
           style="fill:#00ff00;fill-opacity:1;stroke:none"
           sodipodi:nodetypes="cccccsccscccccscccscccccccscccccscccscscccs" onclick="try{ parent.loadDevice(evt,0);}catch(e){}" />
        <path
           sodipodi:nodetypes="cccccsccscccccscccscccccccscccccscccscscccs"
           style="fill:#00ff00;fill-opacity:1;stroke:none"
           d="m 703.68908,1012.1152 c 0.17285,3e-4 0.3361,-0.093 0.47361,-0.1776 0.0431,-0.027 0.11229,-0.06 0.148,-0.089 0.073,-0.058 0.12276,-0.1152 0.1776,-0.1776 0.0421,-0.048 7.78488,-9.1169 7.78488,-9.1169 0,0 0.82881,-0.8479 0.82881,-2.1608 l 0,-8.11051 0,-20.45382 0,-7.99208 c 0,-1.31294 -0.82881,-2.19042 -0.82881,-2.19042 0,0 -7.74273,-9.06944 -7.78488,-9.11689 -0.0548,-0.0624 -0.10457,-0.11935 -0.1776,-0.17761 -0.0357,-0.0285 -0.1049,-0.0619 -0.148,-0.0888 -0.13751,-0.0846 -0.30076,-0.14832 -0.47361,-0.148 -0.17284,3.8e-4 -0.24067,0.0171 -0.3848,0.0592 -0.14413,0.0421 -0.17272,0.0632 -0.2664,0.1184 -0.0937,0.0552 -0.20209,0.16349 -0.26641,0.2368 l -7.78488,9.1169 c 0,0 -0.8288,0.87748 -0.8288,2.19042 l 0,7.99208 0,7.90328 -5.24812,0 c 0,0 -0.97843,0.9203 -0.97681,2.39762 0.002,1.47734 0.97681,2.36804 0.97681,2.36804 l 5.24812,0 0,7.78488 0,8.11051 c 0,1.3129 0.8288,2.1608 0.8288,2.1608 l 7.78488,9.1465 c 0.0643,0.073 0.17273,0.1816 0.26641,0.2368 0.0937,0.055 0.12227,0.076 0.2664,0.1184 0.14413,0.042 0.21196,0.059 0.3848,0.059 z m -0.0592,-4.0257 c -0.32586,-4e-4 -0.6216,-0.3256 -0.6216,-0.3256 l -4.91365,-5.772 c 0,0 -0.23255,-0.2556 -0.11841,-0.5328 0,0 0.0372,-0.2664 0.35521,-0.2664 l 5.29845,0 5.29846,0 c 0.31795,0 0.3552,0.2664 0.3552,0.2664 0.11416,0.2772 -0.1184,0.5328 -0.1184,0.5328 l -4.94325,5.772 c 0,0 -0.26617,0.3261 -0.59201,0.3256 z"
           id="Out14"
           inkscape:connector-curvature="0" onclick="try{ parent.loadDevice(evt,0);}catch(e){}" />
        <path
           inkscape:connector-curvature="0"
           id="Out15"
           d="m 667.72306,1012.1152 c 0.17285,3e-4 0.3657,-0.093 0.5032,-0.1776 0.0431,-0.027 0.0827,-0.06 0.11841,-0.089 0.073,-0.058 0.12275,-0.1152 0.1776,-0.1776 0.0421,-0.048 7.78488,-9.1169 7.78488,-9.1169 0,0 0.8288,-0.8479 0.8288,-2.1608 l 0,-8.11053 0,-20.45382 0,-7.99208 c 0,-1.31292 -0.8288,-2.19041 -0.8288,-2.19041 0,0 -7.74273,-9.06944 -7.78488,-9.11689 -0.0548,-0.0624 -0.10457,-0.11935 -0.1776,-0.1776 -0.0357,-0.0285 -0.0753,-0.062 -0.11841,-0.0888 -0.1375,-0.0846 -0.33035,-0.14832 -0.5032,-0.148 -0.17285,3.8e-4 -0.21108,0.0171 -0.3552,0.0592 -0.14413,0.0421 -0.20233,0.0632 -0.29601,0.1184 -0.0937,0.0552 -0.20208,0.16349 -0.2664,0.2368 l -7.78488,9.1169 c 0,0 -0.82881,0.87748 -0.82881,2.19041 l 0,7.99208 0,7.90328 -5.07051,0 c 0,0 -0.97842,0.9203 -0.97681,2.39764 0.002,1.47732 0.97681,2.36802 0.97681,2.36802 l 5.07051,0 0,7.78488 0,8.11052 c 0,1.3129 0.82881,2.1608 0.82881,2.1608 l 7.78488,9.1465 c 0.0643,0.073 0.17272,0.1816 0.2664,0.2368 0.0937,0.055 0.15188,0.076 0.29601,0.1184 0.14412,0.042 0.18235,0.059 0.3552,0.059 z m -0.0592,-4.0257 c -0.32586,-4e-4 -0.62161,-0.3256 -0.62161,-0.3256 l -4.91365,-5.772 c 0,0 -0.23255,-0.2556 -0.1184,-0.5328 0,0 0.0372,-0.2664 0.3552,-0.2664 l 5.29846,0 5.29845,0 c 0.31795,0 0.35521,0.2664 0.35521,0.2664 0.11415,0.2772 -0.11841,0.5328 -0.11841,0.5328 l -4.91365,5.772 c 0,0 -0.29576,0.3261 -0.6216,0.3256 z m 5.29845,-45.05162 -5.29845,0 -5.29846,0 c -0.31799,0 -0.3552,-0.26641 -0.3552,-0.26641 -0.11415,-0.27723 0.1184,-0.5328 0.1184,-0.5328 l 4.91365,-5.77206 c 0,0 0.29575,-0.35476 0.62161,-0.3552 0.32584,-4.5e-4 0.6216,0.3552 0.6216,0.3552 l 4.91365,5.77206 c 0,0 0.23256,0.25557 0.11841,0.5328 0,0 -0.0372,0.26641 -0.35521,0.26641 z"
           style="fill:#00ff00;fill-opacity:1;stroke:none"
           sodipodi:nodetypes="cccccsccscccccccccscccccccscccccccccscsccccscscccccccs" onclick="try{ parent.loadDevice(evt,0);}catch(e){}" />
        <path
           sodipodi:nodetypes="cccccsccscccccscccscccccccscccccscccscscccs"
           style="fill:#00ff00;fill-opacity:1;stroke:none"
           d="m 631.93463,1012.1154 c 0.17285,3e-4 0.3361,-0.093 0.47361,-0.1776 0.0431,-0.027 0.11229,-0.06 0.148,-0.089 0.073,-0.058 0.12276,-0.1152 0.1776,-0.1776 0.0421,-0.047 7.78488,-9.1169 7.78488,-9.1169 0,0 0.82881,-0.8479 0.82881,-2.1608 l 0,-8.11049 0,-20.45382 0,-7.99212 c 0,-1.3129 -0.82881,-2.1904 -0.82881,-2.1904 0,0 -7.74273,-9.0694 -7.78488,-9.1169 -0.0548,-0.062 -0.10457,-0.1193 -0.1776,-0.1776 -0.0357,-0.028 -0.1049,-0.062 -0.148,-0.089 -0.13751,-0.085 -0.30076,-0.1483 -0.47361,-0.148 -0.17284,4e-4 -0.24067,0.017 -0.3848,0.059 -0.14413,0.042 -0.17272,0.063 -0.2664,0.1184 -0.0937,0.055 -0.20209,0.1635 -0.26641,0.2368 l -7.78488,9.1169 c 0,0 -0.8288,0.8775 -0.8288,2.1904 l 0,7.99212 0,7.90328 -5.24812,0 c 0,0 -0.97843,0.9203 -0.97681,2.39762 0.002,1.47734 0.97681,2.36804 0.97681,2.36804 l 5.24812,0 0,7.78488 0,8.11049 c 0,1.3129 0.8288,2.1608 0.8288,2.1608 l 7.78488,9.1465 c 0.0643,0.073 0.17273,0.1816 0.26641,0.2368 0.0937,0.055 0.12227,0.076 0.2664,0.1184 0.14413,0.042 0.21196,0.059 0.3848,0.059 z m -0.0592,-4.0256 c -0.32586,-5e-4 -0.6216,-0.3256 -0.6216,-0.3256 l -4.91365,-5.7721 c 0,0 -0.23255,-0.2556 -0.11841,-0.5328 0,0 0.0372,-0.2664 0.35521,-0.2664 l 5.29845,0 5.29846,0 c 0.31795,0 0.3552,0.2664 0.3552,0.2664 0.11416,0.2772 -0.1184,0.5328 -0.1184,0.5328 l -4.94325,5.7721 c 0,0 -0.26617,0.326 -0.59201,0.3256 z"
           id="Out16"
           inkscape:connector-curvature="0" onclick="try{ parent.loadDevice(evt,0);}catch(e){}" />
        <path
           sodipodi:nodetypes="cccccsccscccccscccscccccccscccccscccscscccs"
           style="fill:#00ff00;fill-opacity:1;stroke:none"
           d="m 595.96859,1012.1154 c 0.17285,3e-4 0.3361,-0.093 0.47361,-0.1776 0.0431,-0.027 0.11229,-0.06 0.148,-0.089 0.073,-0.058 0.12276,-0.1152 0.1776,-0.1776 0.0421,-0.047 7.78488,-9.1169 7.78488,-9.1169 0,0 0.82881,-0.8479 0.82881,-2.1608 l 0,-8.11049 0,-20.45382 0,-7.99212 c 0,-1.3129 -0.82881,-2.1904 -0.82881,-2.1904 0,0 -7.74273,-9.0694 -7.78488,-9.1169 -0.0548,-0.062 -0.10457,-0.1193 -0.1776,-0.1776 -0.0357,-0.028 -0.1049,-0.062 -0.148,-0.089 -0.13751,-0.085 -0.30076,-0.1483 -0.47361,-0.148 -0.17284,4e-4 -0.24067,0.017 -0.3848,0.059 -0.14413,0.042 -0.17272,0.063 -0.2664,0.1184 -0.0937,0.055 -0.20209,0.1635 -0.26641,0.2368 l -7.78488,9.1169 c 0,0 -0.8288,0.8775 -0.8288,2.1904 l 0,7.99212 0,7.90328 -5.24812,0 c 0,0 -0.97843,0.9203 -0.97681,2.39762 0.002,1.47734 0.97681,2.36804 0.97681,2.36804 l 5.24812,0 0,7.78488 0,8.11049 c 0,1.3129 0.8288,2.1608 0.8288,2.1608 l 7.78488,9.1465 c 0.0643,0.073 0.17273,0.1816 0.26641,0.2368 0.0937,0.055 0.12227,0.076 0.2664,0.1184 0.14413,0.042 0.21196,0.059 0.3848,0.059 z m -0.0592,-4.0256 c -0.32586,-5e-4 -0.6216,-0.3256 -0.6216,-0.3256 l -4.91365,-5.7721 c 0,0 -0.23255,-0.2556 -0.11841,-0.5328 0,0 0.0372,-0.2664 0.35521,-0.2664 l 5.29845,0 5.29846,0 c 0.31795,0 0.3552,0.2664 0.3552,0.2664 0.11416,0.2772 -0.1184,0.5328 -0.1184,0.5328 l -4.94325,5.7721 c 0,0 -0.26617,0.326 -0.59201,0.3256 z"
           id="Out17"
           inkscape:connector-curvature="0" onclick="try{ parent.loadDevice(evt,0);}catch(e){}" />
        <path
           inkscape:connector-curvature="0"
           id="Out18"
           d="m 560.00256,1012.1154 c 0.17285,3e-4 0.3361,-0.093 0.47361,-0.1776 0.0431,-0.027 0.11229,-0.06 0.148,-0.089 0.073,-0.058 0.12276,-0.1152 0.1776,-0.1776 0.0421,-0.047 7.78488,-9.1169 7.78488,-9.1169 0,0 0.82881,-0.8479 0.82881,-2.1608 l 0,-8.11049 0,-20.45382 0,-7.99212 c 0,-1.3129 -0.82881,-2.1904 -0.82881,-2.1904 0,0 -7.74273,-9.0694 -7.78488,-9.1169 -0.0548,-0.062 -0.10457,-0.1193 -0.1776,-0.1776 -0.0357,-0.028 -0.1049,-0.062 -0.148,-0.089 -0.13751,-0.085 -0.30076,-0.1483 -0.47361,-0.148 -0.17284,4e-4 -0.24067,0.017 -0.3848,0.059 -0.14413,0.042 -0.17272,0.063 -0.2664,0.1184 -0.0937,0.055 -0.20209,0.1635 -0.26641,0.2368 l -7.78488,9.1169 c 0,0 -0.8288,0.8775 -0.8288,2.1904 l 0,7.99212 0,7.90328 -5.24812,0 c 0,0 -0.97843,0.9203 -0.97681,2.39762 0.002,1.47734 0.97681,2.36804 0.97681,2.36804 l 5.24812,0 0,7.78488 0,8.11049 c 0,1.3129 0.8288,2.1608 0.8288,2.1608 l 7.78488,9.1465 c 0.0643,0.073 0.17273,0.1816 0.26641,0.2368 0.0937,0.055 0.12227,0.076 0.2664,0.1184 0.14413,0.042 0.21196,0.059 0.3848,0.059 z m -0.0592,-4.0256 c -0.32586,-5e-4 -0.6216,-0.3256 -0.6216,-0.3256 l -4.91365,-5.7721 c 0,0 -0.23255,-0.2556 -0.11841,-0.5328 0,0 0.0372,-0.2664 0.35521,-0.2664 l 5.29845,0 5.29846,0 c 0.31795,0 0.3552,0.2664 0.3552,0.2664 0.11416,0.2772 -0.1184,0.5328 -0.1184,0.5328 l -4.94325,5.7721 c 0,0 -0.26617,0.326 -0.59201,0.3256 z"
           style="fill:#00ff00;fill-opacity:1;stroke:none"
           sodipodi:nodetypes="cccccsccscccccscccscccccccscccccscccscscccs" onclick="try{ parent.loadDevice(evt,0);}catch(e){}" />
        <path
           sodipodi:nodetypes="cccccsccscccccccccscccccccscccccccccscsccccscscccccccs"
           style="fill:#00ff00;fill-opacity:1;stroke:none"
           d="m 524.03654,1012.1152 c 0.17285,3e-4 0.3657,-0.093 0.5032,-0.1776 0.0431,-0.027 0.0827,-0.06 0.11841,-0.089 0.073,-0.058 0.12275,-0.1152 0.1776,-0.1776 0.0421,-0.048 7.78488,-9.1169 7.78488,-9.1169 0,0 0.8288,-0.8479 0.8288,-2.1608 l 0,-8.11053 0,-20.45382 0,-7.99208 c 0,-1.31292 -0.8288,-2.19041 -0.8288,-2.19041 0,0 -7.74273,-9.06944 -7.78488,-9.11689 -0.0548,-0.0624 -0.10457,-0.11935 -0.1776,-0.1776 -0.0357,-0.0285 -0.0753,-0.062 -0.11841,-0.0888 -0.1375,-0.0846 -0.33035,-0.14832 -0.5032,-0.148 -0.17285,3.8e-4 -0.21108,0.0171 -0.3552,0.0592 -0.14413,0.0421 -0.20233,0.0632 -0.29601,0.1184 -0.0937,0.0552 -0.20208,0.16349 -0.2664,0.2368 l -7.78488,9.1169 c 0,0 -0.82881,0.87748 -0.82881,2.19041 l 0,7.99208 0,7.90328 -5.07051,0 c 0,0 -0.97842,0.9203 -0.97681,2.39764 0.002,1.47732 0.97681,2.36802 0.97681,2.36802 l 5.07051,0 0,7.78488 0,8.11052 c 0,1.3129 0.82881,2.1608 0.82881,2.1608 l 7.78488,9.1465 c 0.0643,0.073 0.17272,0.1816 0.2664,0.2368 0.0937,0.055 0.15188,0.076 0.29601,0.1184 0.14412,0.042 0.18235,0.059 0.3552,0.059 z m -0.0592,-4.0257 c -0.32586,-4e-4 -0.62161,-0.3256 -0.62161,-0.3256 l -4.91365,-5.772 c 0,0 -0.23255,-0.2556 -0.1184,-0.5328 0,0 0.0372,-0.2664 0.3552,-0.2664 l 5.29846,0 5.29845,0 c 0.31795,0 0.35521,0.2664 0.35521,0.2664 0.11415,0.2772 -0.11841,0.5328 -0.11841,0.5328 l -4.91365,5.772 c 0,0 -0.29576,0.3261 -0.6216,0.3256 z m 5.29845,-45.05162 -5.29845,0 -5.29846,0 c -0.31799,0 -0.3552,-0.26641 -0.3552,-0.26641 -0.11415,-0.27723 0.1184,-0.5328 0.1184,-0.5328 l 4.91365,-5.77206 c 0,0 0.29575,-0.35476 0.62161,-0.3552 0.32584,-4.5e-4 0.6216,0.3552 0.6216,0.3552 l 4.91365,5.77206 c 0,0 0.23256,0.25557 0.11841,0.5328 0,0 -0.0372,0.26641 -0.35521,0.26641 z"
           id="Out19"
           inkscape:connector-curvature="0" onclick="try{ parent.loadDevice(evt,0);}catch(e){}" />
      </g>
      <g
         id="g4435"
         transform="translate(-24.077865,-61.964566)">
        <rect
           y="406.79544"
           x="284.07379"
           height="62.786362"
           width="145.5798"
           id="rect4369"
           style="fill:#7ec1ff;fill-opacity:0.2;stroke:none" />
        <g
           transform="matrix(0.77575758,0,0,0.77575758,76.914186,60.533711)"
           id="Cosh1" onclick="try{ parent.loadDevice(evt,1);}catch(e){}">
          <path
             style="fill:#00ff00;fill-opacity:1;stroke:none;display:inline"
             d="m 289.94331,461.03953 c -0.831,0 -1.5,0.669 -1.5,1.5 l 0,39 c 0,0.831 0.669,1.5 1.5,1.5 l 22.07812,0 -0.0562,4.2 c 0,0 0.0668,2.08866 -1.04063,2.85 l -2.25937,1.6875 c 0,0 -0.18666,0.11679 -0.24375,0.45938 0,0 -0.10006,0.36562 0.23437,0.36562 l 9.7875,0 9.77813,0 c 0.33443,0 0.23437,-0.36562 0.23437,-0.36562 -0.0571,-0.34259 -0.23437,-0.45938 -0.23437,-0.45938 l -2.26875,-1.6875 c -1.10742,-0.76134 -1.03125,-2.85 -1.03125,-2.85 l -0.0563,-4.2 22.07813,0 c 0.831,0 1.5,-0.669 1.5,-1.5 l 0,-39 c 0,-0.831 -0.669,-1.5 -1.5,-1.5 z"
             id="rect3964-9"
             inkscape:connector-curvature="0"
             sodipodi:nodetypes="sssscccccscscccccsssss" />
          <rect
             style="fill:#000000;fill-opacity:0.3;stroke:none"
             id="rect4393"
             width="52.362156"
             height="29.396299"
             x="292.26221"
             y="465.16211" />
        </g>
        <g
           id="Cosh2"
           transform="matrix(0.77575758,0,0,0.77575758,142.74358,60.533711)" onclick="try{ parent.loadDevice(evt,1);}catch(e){}">
          <path
             sodipodi:nodetypes="sssscccccscscccccsssss"
             inkscape:connector-curvature="0"
             id="path4401"
             d="m 289.94331,461.03953 c -0.831,0 -1.5,0.669 -1.5,1.5 l 0,39 c 0,0.831 0.669,1.5 1.5,1.5 l 22.07812,0 -0.0562,4.2 c 0,0 0.0668,2.08866 -1.04063,2.85 l -2.25937,1.6875 c 0,0 -0.18666,0.11679 -0.24375,0.45938 0,0 -0.10006,0.36562 0.23437,0.36562 l 9.7875,0 9.77813,0 c 0.33443,0 0.23437,-0.36562 0.23437,-0.36562 -0.0571,-0.34259 -0.23437,-0.45938 -0.23437,-0.45938 l -2.26875,-1.6875 c -1.10742,-0.76134 -1.03125,-2.85 -1.03125,-2.85 l -0.0563,-4.2 22.07813,0 c 0.831,0 1.5,-0.669 1.5,-1.5 l 0,-39 c 0,-0.831 -0.669,-1.5 -1.5,-1.5 z"
             style="fill:#00ff00;fill-opacity:1;stroke:none;display:inline" />
          <rect
             y="465.16211"
             x="292.26221"
             height="29.396299"
             width="52.362156"
             id="rect4403"
             style="fill:#000000;fill-opacity:0.3;stroke:none" />
        </g>
      </g>
      <g
         id="g5280"
         transform="translate(26.877315,-18.494595)">
        <rect
           style="fill:#7ec1ff;fill-opacity:0.2;stroke:none"
           id="rect4446"
           width="145.5798"
           height="62.786362"
           x="874.20667"
           y="363.32547" />
        <g
           id="Cosh3"
           transform="matrix(0.77575758,0,0,0.77575758,667.04705,17.063743)" onclick="try{ parent.loadDevice(evt,1);}catch(e){}">
          <path
             sodipodi:nodetypes="sssscccccscscccccsssss"
             inkscape:connector-curvature="0"
             id="path4450"
             d="m 289.94331,461.03953 c -0.831,0 -1.5,0.669 -1.5,1.5 l 0,39 c 0,0.831 0.669,1.5 1.5,1.5 l 22.07812,0 -0.0562,4.2 c 0,0 0.0668,2.08866 -1.04063,2.85 l -2.25937,1.6875 c 0,0 -0.18666,0.11679 -0.24375,0.45938 0,0 -0.10006,0.36562 0.23437,0.36562 l 9.7875,0 9.77813,0 c 0.33443,0 0.23437,-0.36562 0.23437,-0.36562 -0.0571,-0.34259 -0.23437,-0.45938 -0.23437,-0.45938 l -2.26875,-1.6875 c -1.10742,-0.76134 -1.03125,-2.85 -1.03125,-2.85 l -0.0563,-4.2 22.07813,0 c 0.831,0 1.5,-0.669 1.5,-1.5 l 0,-39 c 0,-0.831 -0.669,-1.5 -1.5,-1.5 z"
             style="fill:#00ff00;fill-opacity:1;stroke:none;display:inline" />
          <rect
             y="465.16211"
             x="292.26221"
             height="29.396299"
             width="52.362156"
             id="rect4452"
             style="fill:#000000;fill-opacity:0.3;stroke:none" />
        </g>
        <g
           transform="matrix(0.77575758,0,0,0.77575758,732.87644,17.063743)"
           id="Cosh4" onclick="try{ parent.loadDevice(evt,1);}catch(e){}">
          <path
             style="fill:#00ff00;fill-opacity:1;stroke:none;display:inline"
             d="m 289.94331,461.03953 c -0.831,0 -1.5,0.669 -1.5,1.5 l 0,39 c 0,0.831 0.669,1.5 1.5,1.5 l 22.07812,0 -0.0562,4.2 c 0,0 0.0668,2.08866 -1.04063,2.85 l -2.25937,1.6875 c 0,0 -0.18666,0.11679 -0.24375,0.45938 0,0 -0.10006,0.36562 0.23437,0.36562 l 9.7875,0 9.77813,0 c 0.33443,0 0.23437,-0.36562 0.23437,-0.36562 -0.0571,-0.34259 -0.23437,-0.45938 -0.23437,-0.45938 l -2.26875,-1.6875 c -1.10742,-0.76134 -1.03125,-2.85 -1.03125,-2.85 l -0.0563,-4.2 22.07813,0 c 0.831,0 1.5,-0.669 1.5,-1.5 l 0,-39 c 0,-0.831 -0.669,-1.5 -1.5,-1.5 z"
             id="path4456"
             inkscape:connector-curvature="0"
             sodipodi:nodetypes="sssscccccscscccccsssss" />
          <rect
             style="fill:#000000;fill-opacity:0.3;stroke:none"
             id="rect4458"
             width="52.362156"
             height="29.396299"
             x="292.26221"
             y="465.16211" />
        </g>
      </g>
      <g
         id="g4559">
        <g
           id="Person1"
           transform="translate(-85.64684,-219.04228)" onclick="try{ parent.loadDevice(evt,1);}catch(e){}">
          <rect
             style="fill:#00ff00;fill-opacity:1;stroke:none"
             id="rect4821"
             width="40"
             height="54"
             x="1268.4421"
             y="561.94226" />
          <rect
             y="564.14655"
             x="1270.5955"
             height="6.1675549"
             width="35.693405"
             id="rect4823"
             style="fill:#000000;fill-opacity:0.3;stroke:none" />
          <rect
             style="fill:#000000;fill-opacity:0.15;stroke:none"
             id="rect4825"
             width="40"
             height="18.752117"
             x="1268.4421"
             y="597.19006" />
          <rect
             style="fill:#000000;fill-opacity:0.3;stroke:none"
             id="rect4827"
             width="23.378662"
             height="17.226383"
             x="1273.3979"
             y="575.27832" />
        </g>
        <g
           transform="translate(-21.262127,-219.04228)"
           id="Person2" onclick="try{ parent.loadDevice(evt,1);}catch(e){}">
          <rect
             y="561.94226"
             x="1268.4421"
             height="54"
             width="40"
             id="rect4885"
             style="fill:#00ff00;fill-opacity:1;stroke:none" />
          <rect
             style="fill:#000000;fill-opacity:0.3;stroke:none"
             id="rect4887"
             width="35.693405"
             height="6.1675549"
             x="1270.5955"
             y="564.14655" />
          <rect
             y="597.19006"
             x="1268.4421"
             height="18.752117"
             width="40"
             id="rect4889"
             style="fill:#000000;fill-opacity:0.15;stroke:none" />
          <rect
             y="575.27832"
             x="1273.3979"
             height="17.226383"
             width="23.378662"
             id="rect4891"
             style="fill:#000000;fill-opacity:0.3;stroke:none" />
        </g>
      </g>
      <g
         id="g4461">
        <g
           id="Auto1"
           transform="translate(-12.387477,-5.0802797)" onclick="try{ parent.loadDevice(evt,1);}catch(e){}">
          <rect
             style="fill:#00ff00;fill-opacity:1;stroke:none"
             id="rect4462"
             width="40"
             height="54"
             x="1268.4421"
             y="561.94226" />
          <rect
             y="564.14655"
             x="1270.5955"
             height="6.1675549"
             width="35.693405"
             id="rect4464"
             style="fill:#000000;fill-opacity:0.3;stroke:none" />
          <rect
             style="fill:#000000;fill-opacity:0.15;stroke:none"
             id="rect4466"
             width="40"
             height="18.752117"
             x="1268.4421"
             y="597.19006" />
          <rect
             style="fill:#000000;fill-opacity:0.3;stroke:none"
             id="rect4468"
             width="23.378662"
             height="17.226383"
             x="1273.3979"
             y="575.27832" />
          <text
             xml:space="preserve"
             style="font-size:24px;font-style:normal;font-variant:normal;font-weight:normal;font-stretch:normal;text-align:start;line-height:125%;letter-spacing:0px;word-spacing:0px;writing-mode:tb-rl;text-anchor:start;fill:#000000;fill-opacity:1;stroke:none;font-family:'汉仪中黑简';-inkscape-font-specification:'汉仪中黑简'"
             x="1234.8397"
             y="591.0495"
             id="text4479"
             sodipodi:linespacing="125%"><tspan
             sodipodi:role="line"
             id="tspan4481"
             x="1234.8397"
             y="591.0495"
             style="font-size:20px;font-style:normal;font-variant:normal;font-weight:normal;font-stretch:normal;writing-mode:lr-tb;fill:#ffffff;fill-opacity:1;font-family:Arial;-inkscape-font-specification:Arial">T1</tspan></text>
        </g>
        <g
           id="Auto2"
           transform="translate(-12.387477,-7.2267027)" onclick="try{ parent.loadDevice(evt,1);}catch(e){}">
          <rect
             y="637.08771"
             x="1268.4421"
             height="54"
             width="40"
             id="rect4491"
             style="fill:#ffff00;fill-opacity:1;stroke:none" />
          <rect
             style="fill:#000000;fill-opacity:0.3;stroke:none"
             id="rect4493"
             width="35.693405"
             height="6.1675549"
             x="1270.5955"
             y="639.29199" />
          <rect
             y="672.33551"
             x="1268.4421"
             height="18.752117"
             width="40"
             id="rect4495"
             style="fill:#000000;fill-opacity:0.15;stroke:none" />
          <rect
             y="650.42377"
             x="1273.3979"
             height="17.226383"
             width="23.378662"
             id="rect4497"
             style="fill:#000000;fill-opacity:0.3;stroke:none" />
          <text
             sodipodi:linespacing="125%"
             id="text5117"
             y="664.01434"
             x="1234.2225"
             style="font-size:24px;font-style:normal;font-variant:normal;font-weight:normal;font-stretch:normal;text-align:start;line-height:125%;letter-spacing:0px;word-spacing:0px;writing-mode:tb-rl;text-anchor:start;fill:#000000;fill-opacity:1;stroke:none;font-family:'汉仪中黑简';-inkscape-font-specification:'汉仪中黑简'"
             xml:space="preserve"><tspan
             style="font-size:20px;font-style:normal;font-variant:normal;font-weight:normal;font-stretch:normal;writing-mode:lr-tb;fill:#ffffff;fill-opacity:1;font-family:Arial;-inkscape-font-specification:Arial"
             y="664.01434"
             x="1234.2225"
             id="tspan5119"
             sodipodi:role="line">T2</tspan></text>
        </g>
        <g
           id="Auto3"
           transform="translate(-12.387477,-6.3754457)" onclick="try{ parent.loadDevice(evt,1);}catch(e){}">
          <rect
             style="fill:#ff0000;fill-opacity:1;stroke:none"
             id="rect4511"
             width="40"
             height="54"
             x="1268.4421"
             y="709.23547" />
          <rect
             y="711.43976"
             x="1270.5955"
             height="6.1675549"
             width="35.693405"
             id="rect4513"
             style="fill:#000000;fill-opacity:0.3;stroke:none" />
          <rect
             style="fill:#000000;fill-opacity:0.15;stroke:none"
             id="rect4515"
             width="40"
             height="18.752117"
             x="1268.4421"
             y="744.48328" />
          <rect
             style="fill:#000000;fill-opacity:0.3;stroke:none"
             id="rect4517"
             width="23.378662"
             height="17.226383"
             x="1273.3979"
             y="722.57153" />
          <text
             xml:space="preserve"
             style="font-size:24px;font-style:normal;font-variant:normal;font-weight:normal;font-stretch:normal;text-align:start;line-height:125%;letter-spacing:0px;word-spacing:0px;writing-mode:tb-rl;text-anchor:start;fill:#000000;fill-opacity:1;stroke:none;font-family:'汉仪中黑简';-inkscape-font-specification:'汉仪中黑简'"
             x="1234.076"
             y="736.97919"
             id="text5121"
             sodipodi:linespacing="125%"><tspan
             sodipodi:role="line"
             id="tspan5123"
             x="1234.076"
             y="736.97919"
             style="font-size:20px;font-style:normal;font-variant:normal;font-weight:normal;font-stretch:normal;writing-mode:lr-tb;fill:#ffffff;fill-opacity:1;font-family:Arial;-inkscape-font-specification:Arial">T3</tspan></text>
        </g>
        <g
           id="Auto4"
           transform="translate(-12.387477,-3.0066107)" onclick="try{ parent.loadDevice(evt,1);}catch(e){}">
          <rect
             y="778.86566"
             x="1268.4421"
             height="54"
             width="40"
             id="rect4541"
             style="fill:#cccccc;fill-opacity:1;stroke:none" />
          <rect
             style="fill:#000000;fill-opacity:0.3;stroke:none"
             id="rect4543"
             width="35.693405"
             height="6.1675549"
             x="1270.5955"
             y="781.06995" />
          <rect
             y="814.11346"
             x="1268.4421"
             height="18.752117"
             width="40"
             id="rect4545"
             style="fill:#000000;fill-opacity:0.15;stroke:none" />
          <rect
             y="792.20172"
             x="1273.3979"
             height="17.226383"
             width="23.378662"
             id="rect4547"
             style="fill:#000000;fill-opacity:0.3;stroke:none" />
          <text
             sodipodi:linespacing="125%"
             id="text5125"
             y="810.13934"
             x="1234.1346"
             style="font-size:24px;font-style:normal;font-variant:normal;font-weight:normal;font-stretch:normal;text-align:start;line-height:125%;letter-spacing:0px;word-spacing:0px;writing-mode:tb-rl;text-anchor:start;fill:#000000;fill-opacity:1;stroke:none;font-family:'汉仪中黑简';-inkscape-font-specification:'汉仪中黑简'"
             xml:space="preserve"><tspan
             style="font-size:20px;font-style:normal;font-variant:normal;font-weight:normal;font-stretch:normal;writing-mode:lr-tb;fill:#ffffff;fill-opacity:1;font-family:Arial;-inkscape-font-specification:Arial"
             y="810.13934"
             x="1234.1346"
             id="tspan5127"
             sodipodi:role="line">T4</tspan></text>
        </g>
        <g
           id="Auto5"
           transform="translate(-12.387477,-5.0802337)" onclick="try{ parent.loadDevice(evt,1);}catch(e){}">
          <rect
             style="fill:#ffffff;fill-opacity:1;stroke:none"
             id="rect4561"
             width="40"
             height="54"
             x="1268.4421"
             y="853.93829" />
          <rect
             y="856.14258"
             x="1270.5955"
             height="6.1675549"
             width="35.693405"
             id="rect4563"
             style="fill:#000000;fill-opacity:0.3;stroke:none" />
          <rect
             style="fill:#000000;fill-opacity:0.15;stroke:none"
             id="rect4565"
             width="40"
             height="18.752117"
             x="1268.4421"
             y="889.1861" />
          <rect
             style="fill:#000000;fill-opacity:0.3;stroke:none"
             id="rect4567"
             width="23.378662"
             height="17.226383"
             x="1273.3979"
             y="867.27435" />
          <text
             xml:space="preserve"
             style="font-size:24px;font-style:normal;font-variant:normal;font-weight:normal;font-stretch:normal;text-align:start;line-height:125%;letter-spacing:0px;word-spacing:0px;writing-mode:tb-rl;text-anchor:start;fill:#000000;fill-opacity:1;stroke:none;font-family:'汉仪中黑简';-inkscape-font-specification:'汉仪中黑简'"
             x="1233.9686"
             y="883.04559"
             id="text5129"
             sodipodi:linespacing="125%"><tspan
             sodipodi:role="line"
             id="tspan5131"
             x="1233.9686"
             y="883.04559"
             style="font-size:20px;font-style:normal;font-variant:normal;font-weight:normal;font-stretch:normal;writing-mode:lr-tb;fill:#ffffff;fill-opacity:1;font-family:Arial;-inkscape-font-specification:Arial">T5</tspan></text>
        </g>
      </g>
      <g
         id="g4499"
         transform="translate(-1204,-6)">
        <g
           id="Auto6" onclick="try{ parent.loadDevice(evt,1);}catch(e){}">
          <rect
             y="561.94226"
             x="1268.4421"
             height="54"
             width="40"
             id="rect4581"
             style="fill:#00ff00;fill-opacity:1;stroke:none" />
          <rect
             style="fill:#000000;fill-opacity:0.3;stroke:none"
             id="rect4583"
             width="35.693405"
             height="6.1675549"
             x="1270.5955"
             y="564.14655" />
          <rect
             y="597.19006"
             x="1268.4421"
             height="18.752117"
             width="40"
             id="rect4585"
             style="fill:#000000;fill-opacity:0.15;stroke:none" />
          <rect
             y="575.27832"
             x="1273.3979"
             height="17.226383"
             width="23.378662"
             id="rect4587"
             style="fill:#000000;fill-opacity:0.3;stroke:none" />
          <text
             sodipodi:linespacing="125%"
             id="text5235"
             y="589.30939"
             x="1319.1487"
             style="font-size:24px;font-style:normal;font-variant:normal;font-weight:normal;font-stretch:normal;text-align:start;line-height:125%;letter-spacing:0px;word-spacing:0px;writing-mode:tb-rl;text-anchor:start;fill:#000000;fill-opacity:1;stroke:none;font-family:'汉仪中黑简';-inkscape-font-specification:'汉仪中黑简'"
             xml:space="preserve"><tspan
             style="font-size:20px;font-style:normal;font-variant:normal;font-weight:normal;font-stretch:normal;writing-mode:lr-tb;fill:#ffffff;fill-opacity:1;font-family:Arial;-inkscape-font-specification:Arial"
             y="589.30939"
             x="1319.1487"
             id="tspan5237"
             sodipodi:role="line">T6</tspan></text>
        </g>
        <g
           id="Auto7"
           transform="translate(0,74)" onclick="try{ parent.loadDevice(evt,1);}catch(e){}">
          <rect
             style="fill:#00ff00;fill-opacity:1;stroke:none"
             id="rect4631"
             width="40"
             height="54"
             x="1268.4421"
             y="561.94226" />
          <rect
             y="564.14655"
             x="1270.5955"
             height="6.1675549"
             width="35.693405"
             id="rect4633"
             style="fill:#000000;fill-opacity:0.3;stroke:none" />
          <rect
             style="fill:#000000;fill-opacity:0.15;stroke:none"
             id="rect4635"
             width="40"
             height="18.752117"
             x="1268.4421"
             y="597.19006" />
          <rect
             style="fill:#000000;fill-opacity:0.3;stroke:none"
             id="rect4637"
             width="23.378662"
             height="17.226383"
             x="1273.3979"
             y="575.27832" />
          <text
             xml:space="preserve"
             style="font-size:24px;font-style:normal;font-variant:normal;font-weight:normal;font-stretch:normal;text-align:start;line-height:125%;letter-spacing:0px;word-spacing:0px;writing-mode:tb-rl;text-anchor:start;fill:#000000;fill-opacity:1;stroke:none;font-family:'汉仪中黑简';-inkscape-font-specification:'汉仪中黑简'"
             x="1320.8888"
             y="594.40924"
             id="text5239"
             sodipodi:linespacing="125%"><tspan
             sodipodi:role="line"
             id="tspan5241"
             x="1320.8888"
             y="594.40924"
             style="font-size:20px;font-style:normal;font-variant:normal;font-weight:normal;font-stretch:normal;writing-mode:lr-tb;fill:#ffffff;fill-opacity:1;font-family:Arial;-inkscape-font-specification:Arial">T7</tspan></text>
        </g>
        <g
           id="Auto8"
           transform="translate(0,148)" onclick="try{ parent.loadDevice(evt,1);}catch(e){}">
          <rect
             y="561.94226"
             x="1268.4421"
             height="54"
             width="40"
             id="rect4651"
             style="fill:#00ff00;fill-opacity:1;stroke:none" />
          <rect
             style="fill:#000000;fill-opacity:0.3;stroke:none"
             id="rect4653"
             width="35.693405"
             height="6.1675549"
             x="1270.5955"
             y="564.14655" />
          <rect
             y="597.19006"
             x="1268.4421"
             height="18.752117"
             width="40"
             id="rect4655"
             style="fill:#000000;fill-opacity:0.15;stroke:none" />
          <rect
             y="575.27832"
             x="1273.3979"
             height="17.226383"
             width="23.378662"
             id="rect4657"
             style="fill:#000000;fill-opacity:0.3;stroke:none" />
          <text
             sodipodi:linespacing="125%"
             id="text5243"
             y="597.76898"
             x="1320.8888"
             style="font-size:24px;font-style:normal;font-variant:normal;font-weight:normal;font-stretch:normal;text-align:start;line-height:125%;letter-spacing:0px;word-spacing:0px;writing-mode:tb-rl;text-anchor:start;fill:#000000;fill-opacity:1;stroke:none;font-family:'汉仪中黑简';-inkscape-font-specification:'汉仪中黑简'"
             xml:space="preserve"><tspan
             style="font-size:20px;font-style:normal;font-variant:normal;font-weight:normal;font-stretch:normal;writing-mode:lr-tb;fill:#ffffff;fill-opacity:1;font-family:Arial;-inkscape-font-specification:Arial"
             y="597.76898"
             x="1320.8888"
             id="tspan5245"
             sodipodi:role="line">T8</tspan></text>
        </g>
        <g
           id="Auto9"
           transform="translate(0,218)" onclick="try{ parent.loadDevice(evt,1);}catch(e){}">
          <rect
             style="fill:#00ff00;fill-opacity:1;stroke:none"
             id="rect4661"
             width="40"
             height="54"
             x="1268.4421"
             y="561.94226" />
          <rect
             y="564.14655"
             x="1270.5955"
             height="6.1675549"
             width="35.693405"
             id="rect4663"
             style="fill:#000000;fill-opacity:0.3;stroke:none" />
          <rect
             style="fill:#000000;fill-opacity:0.15;stroke:none"
             id="rect4665"
             width="40"
             height="18.752117"
             x="1268.4421"
             y="597.19006" />
          <rect
             style="fill:#000000;fill-opacity:0.3;stroke:none"
             id="rect4667"
             width="23.378662"
             height="17.226383"
             x="1273.3979"
             y="575.27832" />
          <text
             xml:space="preserve"
             style="font-size:24px;font-style:normal;font-variant:normal;font-weight:normal;font-stretch:normal;text-align:start;line-height:125%;letter-spacing:0px;word-spacing:0px;writing-mode:tb-rl;text-anchor:start;fill:#000000;fill-opacity:1;stroke:none;font-family:'汉仪中黑简';-inkscape-font-specification:'汉仪中黑简'"
             x="1320.8888"
             y="594.36353"
             id="text5247"
             sodipodi:linespacing="125%"><tspan
             sodipodi:role="line"
             id="tspan5249"
             x="1320.8888"
             y="594.36353"
             style="font-size:20px;font-style:normal;font-variant:normal;font-weight:normal;font-stretch:normal;writing-mode:lr-tb;fill:#ffffff;fill-opacity:1;font-family:Arial;-inkscape-font-specification:Arial">T9</tspan></text>
        </g>
        <g
           id="Auto10"
           transform="translate(0,296)" onclick="try{ parent.loadDevice(evt,1);}catch(e){}">
          <rect
             y="561.94226"
             x="1268.4421"
             height="54"
             width="40"
             id="rect4641"
             style="fill:#00ff00;fill-opacity:1;stroke:none" />
          <rect
             style="fill:#000000;fill-opacity:0.3;stroke:none"
             id="rect4643"
             width="35.693405"
             height="6.1675549"
             x="1270.5955"
             y="564.14655" />
          <rect
             y="597.19006"
             x="1268.4421"
             height="18.752117"
             width="40"
             id="rect4645"
             style="fill:#000000;fill-opacity:0.15;stroke:none" />
          <rect
             y="575.27832"
             x="1273.3979"
             height="17.226383"
             width="23.378662"
             id="rect4647"
             style="fill:#000000;fill-opacity:0.3;stroke:none" />
          <text
             sodipodi:linespacing="125%"
             id="text5251"
             y="594.18445"
             x="1319.1487"
             style="font-size:24px;font-style:normal;font-variant:normal;font-weight:normal;font-stretch:normal;text-align:start;line-height:125%;letter-spacing:0px;word-spacing:0px;writing-mode:tb-rl;text-anchor:start;fill:#000000;fill-opacity:1;stroke:none;font-family:'汉仪中黑简';-inkscape-font-specification:'汉仪中黑简'"
             xml:space="preserve"><tspan
             style="font-size:20px;font-style:normal;font-variant:normal;font-weight:normal;font-stretch:normal;writing-mode:lr-tb;fill:#ffffff;fill-opacity:1;font-family:Arial;-inkscape-font-specification:Arial"
             y="594.18445"
             x="1319.1487"
             id="tspan5253"
             sodipodi:role="line">T10</tspan></text>
        </g>
      </g>
      <g
         id="g4729"
         transform="translate(0,-64.841602)">
        <rect
           y="548.55975"
           x="384.19272"
           height="160"
           width="20"
           id="rect4687"
           style="fill:#7ec1ff;fill-opacity:0.2;stroke:none" />
        <path
           inkscape:connector-curvature="0"
           id="rect4679"
           d="m 384.19272,628.55972 -6.46749,-6.48241 -13.51753,-13.51753 -6.48243,6.48243 8.94696,8.94696 -19.52201,0 0,9.14114 19.52201,0 -8.94696,8.94692 6.4675,6.48249 13.53246,-13.53249 6.46749,-6.46752 z"
           style="fill:#ffffff;fill-opacity:1;stroke:none" />
      </g>
      <g
         id="g4733"
         transform="translate(410.67006,-64.841602)">
        <rect
           style="fill:#7ec1ff;fill-opacity:0.2;stroke:none"
           id="rect4735"
           width="20"
           height="160"
           x="384.19272"
           y="548.55975" />
        <path
           style="fill:#ffffff;fill-opacity:1;stroke:none"
           d="m 384.19272,628.55972 -6.46749,-6.48241 -13.51753,-13.51753 -6.48243,6.48243 8.94696,8.94696 -19.52201,0 0,9.14114 19.52201,0 -8.94696,8.94692 6.4675,6.48249 13.53246,-13.53249 6.46749,-6.46752 z"
           id="path4737"
           inkscape:connector-curvature="0" />
      </g>
      <g
         id="g4739"
         transform="matrix(-1,0,0,1,895.77351,108.05038)">
        <rect
           style="fill:#7ec1ff;fill-opacity:0.2;stroke:none"
           id="rect4741"
           width="20"
           height="160"
           x="384.19272"
           y="548.55975" />
        <path
           style="fill:#ffffff;fill-opacity:1;stroke:none"
           d="m 384.19272,628.55972 -6.46749,-6.48241 -13.51753,-13.51753 -6.48243,6.48243 8.94696,8.94696 -19.52201,0 0,9.14114 19.52201,0 -8.94696,8.94692 6.4675,6.48249 13.53246,-13.53249 6.46749,-6.46752 z"
           id="path4743"
           inkscape:connector-curvature="0" />
      </g>
      <g
         transform="matrix(-1,0,0,1,1304.7034,108.05038)"
         id="g4745">
        <rect
           y="548.55975"
           x="384.19272"
           height="160"
           width="20"
           id="rect4747"
           style="fill:#7ec1ff;fill-opacity:0.2;stroke:none" />
        <path
           inkscape:connector-curvature="0"
           id="path4749"
           d="m 384.19272,628.55972 -6.46749,-6.48241 -13.51753,-13.51753 -6.48243,6.48243 8.94696,8.94696 -19.52201,0 0,9.14114 19.52201,0 -8.94696,8.94692 6.4675,6.48249 13.53246,-13.53249 6.46749,-6.46752 z"
           style="fill:#ffffff;fill-opacity:1;stroke:none" />
      </g>
      <g
         id="g4815"
         transform="translate(0,-25.353955)">
        <rect
           transform="matrix(0,1,1,0,0,0)"
           y="486.21542"
           x="915.25067"
           height="331.40253"
           width="20"
           id="rect4809"
           style="fill:#7ec1ff;fill-opacity:0.2;stroke:none" />
        <path
           inkscape:connector-curvature="0"
           id="path4811"
           d="m 654.96188,915.25069 -6.48241,-6.46749 -13.51753,-13.51753 6.48243,-6.48243 8.94696,8.94696 0,-19.52201 9.14114,0 0,19.52201 8.94692,-8.94696 6.48249,6.4675 -13.53249,13.53246 -6.46752,6.46749 z"
           style="fill:#ffffff;fill-opacity:1;stroke:none" />
      </g>
      <text
         xml:space="preserve"
         style="font-size:24px;font-style:normal;font-variant:normal;font-weight:normal;font-stretch:normal;text-align:start;line-height:125%;letter-spacing:0px;word-spacing:0px;writing-mode:lr-tb;text-anchor:start;fill:#ffffff;fill-opacity:1;stroke:none;font-family:'汉仪中黑简';-inkscape-font-specification:'汉仪中黑简'"
         x="246.96619"
         y="520.66815"
         id="text5255"
         sodipodi:linespacing="125%"><tspan
         sodipodi:role="line"
         id="tspan5257"
         x="246.96619"
         y="520.66815">非付费区</tspan></text>
      <text
         sodipodi:linespacing="125%"
         id="text5259"
         y="799.08856"
         x="949.97766"
         style="font-size:24px;font-style:normal;font-variant:normal;font-weight:normal;font-stretch:normal;text-align:start;line-height:125%;letter-spacing:0px;word-spacing:0px;writing-mode:lr-tb;text-anchor:start;fill:#ffffff;fill-opacity:1;stroke:none;font-family:'汉仪中黑简';-inkscape-font-specification:'汉仪中黑简'"
         xml:space="preserve"><tspan
         y="799.08856"
         x="949.97766"
         id="tspan5261"
         sodipodi:role="line">非付费区</tspan></text>
      <text
         xml:space="preserve"
         style="font-size:24px;font-style:normal;font-variant:normal;font-weight:normal;font-stretch:normal;text-align:start;line-height:125%;letter-spacing:0px;word-spacing:0px;writing-mode:lr-tb;text-anchor:start;fill:#ffffff;fill-opacity:1;stroke:none;font-family:'汉仪中黑简';-inkscape-font-specification:'汉仪中黑简'"
         x="563.66937"
         y="804.3089"
         id="text5263"
         sodipodi:linespacing="125%"><tspan
         sodipodi:role="line"
         id="tspan5265"
         x="563.66937"
         y="804.3089">付费区</tspan></text>
      <text
         sodipodi:linespacing="125%"
         id="text5267"
         y="522.40826"
         x="699.39929"
         style="font-size:24px;font-style:normal;font-variant:normal;font-weight:normal;font-stretch:normal;text-align:start;line-height:125%;letter-spacing:0px;word-spacing:0px;writing-mode:lr-tb;text-anchor:start;fill:#ffffff;fill-opacity:1;stroke:none;font-family:'汉仪中黑简';-inkscape-font-specification:'汉仪中黑简'"
         xml:space="preserve"><tspan
         y="522.40826"
         x="699.39929"
         id="tspan5269"
         sodipodi:role="line">付费区</tspan></text>
      <g
         id="StationInformation"
         transform="translate(28.757935,2.7576302)">
        <rect
           y="293.08575"
           x="574.24207"
           height="40"
           width="160"
           id="rect5271"
           style="fill:#ffffff;fill-opacity:0.3;stroke:none" />
        <g
           transform="translate(227.06049,-306.03729)"
           id="g4987"
           style="display:inline">
          <rect
             style="fill:#00ff86;fill-opacity:1;stroke:none"
             id="rect4955"
             width="30"
             height="30"
             x="352.18158"
             y="604.12305"
             rx="2"
             ry="2" />
          <g
             id="text4943"
             style="font-size:20px;font-style:normal;font-variant:normal;font-weight:bold;font-stretch:normal;text-align:start;line-height:125%;letter-spacing:0px;word-spacing:0px;writing-mode:lr-tb;text-anchor:start;fill:#ffffff;fill-opacity:1;stroke:none;font-family:Microsoft YaHei;-inkscape-font-specification:Microsoft YaHei Bold">
            <path
               inkscape:connector-curvature="0"
               id="path7963"
               style="font-size:24px;font-weight:normal;line-height:125%;fill:#ffffff;font-family:Impact;-inkscape-font-specification:Impact"
               d="m 370.86713,618.04492 c 0.71874,0.2422 1.25389,0.63868 1.60547,1.18945 0.35155,0.5508 0.52733,1.84181 0.52734,3.87305 -10e-6,1.50782 -0.17189,2.67774 -0.51563,3.50977 -0.34376,0.83203 -0.93751,1.46484 -1.78125,1.89843 -0.84375,0.4336 -1.92578,0.6504 -3.24609,0.6504 -1.5,0 -2.67774,-0.25196 -3.5332,-0.75586 -0.85547,-0.50391 -1.41797,-1.1211 -1.6875,-1.85157 -0.26953,-0.73046 -0.4043,-1.99804 -0.4043,-3.80273 l 0,-1.5 4.73438,0 0,3.08203 c -10e-6,0.82032 0.0488,1.3418 0.14648,1.56445 0.0976,0.22266 0.31445,0.33399 0.65039,0.33399 0.36718,0 0.60937,-0.14062 0.72656,-0.42188 0.11718,-0.28124 0.17578,-1.01562 0.17578,-2.20312 l 0,-1.3125 c 0,-0.72656 -0.082,-1.25781 -0.24609,-1.59375 -0.16407,-0.33593 -0.40626,-0.55663 -0.72656,-0.66211 -0.32032,-0.10546 -0.94141,-0.16601 -1.86328,-0.18164 l 0,-2.75391 c 1.12499,10e-6 1.8203,-0.043 2.08593,-0.1289 0.26562,-0.0859 0.45703,-0.27343 0.57422,-0.5625 0.11718,-0.28905 0.17578,-0.74218 0.17578,-1.35938 l 0,-1.05469 c 0,-0.66404 -0.0684,-1.10154 -0.20507,-1.3125 -0.13673,-0.21092 -0.34962,-0.31639 -0.63868,-0.3164 -0.32813,10e-6 -0.55274,0.11134 -0.67382,0.33398 -0.1211,0.22267 -0.18165,0.69728 -0.18164,1.42383 l 0,1.55859 -4.73438,0 0,-1.61718 c 0,-1.81249 0.41406,-3.0371 1.24219,-3.67383 0.82812,-0.6367 2.14452,-0.95506 3.94922,-0.95508 2.2578,2e-5 3.78905,0.44142 4.59375,1.32422 0.80467,0.88283 1.20702,2.10939 1.20703,3.67969 -1e-5,1.06251 -0.14455,1.83009 -0.4336,2.30273 -0.28907,0.47267 -0.79688,0.90431 -1.52343,1.29492 z" />
          </g>
        </g>
        <text
           sodipodi:linespacing="125%"
           id="text5304"
           y="320.23419"
           x="636.20874"
           style="font-size:24px;font-style:normal;font-variant:normal;font-weight:normal;font-stretch:normal;text-align:start;line-height:125%;letter-spacing:0px;word-spacing:0px;writing-mode:lr-tb;text-anchor:start;fill:#ffffff;fill-opacity:1;stroke:none;font-family:'汉仪中黑简';-inkscape-font-specification:'汉仪中黑简'"
           xml:space="preserve"><tspan
           y="320.23419"
           x="636.20874"
           id="tspan5306"
           sodipodi:role="line">南京站</tspan></text>
      </g>
      <g
         id="Statuses"
         transform="translate(-544.63196,712.84739)">
        <g
           id="g5367">
          <rect
             style="fill:#00ff00;fill-opacity:1;stroke:none"
             id="rect5317"
             width="20"
             height="20"
             x="576.34473"
             y="300.21133"
             rx="0.90657556"
             ry="0.90657556" />
          <text
             xml:space="preserve"
             style="font-size:24px;font-style:normal;font-variant:normal;font-weight:normal;font-stretch:normal;text-align:start;line-height:125%;letter-spacing:0px;word-spacing:0px;writing-mode:lr-tb;text-anchor:start;fill:#ffffff;fill-opacity:1;stroke:none;font-family:'汉仪中黑简';-inkscape-font-specification:'汉仪中黑简'"
             x="603.57166"
             y="315.58145"
             id="text5327"
             sodipodi:linespacing="125%"><tspan
             sodipodi:role="line"
             id="tspan5329"
             x="603.57166"
             y="315.58145"
             style="font-size:18px;font-style:normal;font-variant:normal;font-weight:normal;font-stretch:normal;text-align:start;line-height:125%;writing-mode:lr-tb;text-anchor:start;font-family:'汉仪中黑简';-inkscape-font-specification:'汉仪中黑简'">正常</tspan></text>
        </g>
        <g
           transform="translate(-2.2200165,0)"
           id="g5362">
          <rect
             ry="0.90657556"
             rx="0.90657556"
             y="300.21133"
             x="670.10419"
             height="20"
             width="20"
             id="rect5319"
             style="fill:#ffff00;fill-opacity:1;stroke:none" />
          <text
             sodipodi:linespacing="125%"
             id="text5331"
             y="315.58145"
             x="698.02051"
             style="font-size:24px;font-style:normal;font-variant:normal;font-weight:normal;font-stretch:normal;text-align:start;line-height:125%;letter-spacing:0px;word-spacing:0px;writing-mode:lr-tb;text-anchor:start;fill:#ffffff;fill-opacity:1;stroke:none;font-family:'汉仪中黑简';-inkscape-font-specification:'汉仪中黑简'"
             xml:space="preserve"><tspan
             style="font-size:18px;font-style:normal;font-variant:normal;font-weight:normal;font-stretch:normal;text-align:start;line-height:125%;writing-mode:lr-tb;text-anchor:start;font-family:'汉仪中黑简';-inkscape-font-specification:'汉仪中黑简'"
             y="315.58145"
             x="698.02051"
             id="tspan5333"
             sodipodi:role="line">警告</tspan></text>
        </g>
        <g
           transform="translate(-4.3560638,0)"
           id="g5357">
          <rect
             style="fill:#ff0000;fill-opacity:1;stroke:none"
             id="rect5321"
             width="20"
             height="20"
             x="765.24249"
             y="300.21133"
             rx="0.90657556"
             ry="0.90657556" />
          <text
             xml:space="preserve"
             style="font-size:24px;font-style:normal;font-variant:normal;font-weight:normal;font-stretch:normal;text-align:start;line-height:125%;letter-spacing:0px;word-spacing:0px;writing-mode:lr-tb;text-anchor:start;fill:#ffffff;fill-opacity:1;stroke:none;font-family:'汉仪中黑简';-inkscape-font-specification:'汉仪中黑简'"
             x="794.53754"
             y="315.58145"
             id="text5335"
             sodipodi:linespacing="125%"><tspan
             sodipodi:role="line"
             id="tspan5337"
             x="794.53754"
             y="315.58145"
             style="font-size:18px;font-style:normal;font-variant:normal;font-weight:normal;font-stretch:normal;text-align:start;line-height:125%;writing-mode:lr-tb;text-anchor:start;font-family:'汉仪中黑简';-inkscape-font-specification:'汉仪中黑简'">报警</tspan></text>
        </g>
        <g
           transform="translate(-4.845871,0)"
           id="g5352">
          <rect
             ry="0.90657556"
             rx="0.90657556"
             y="300.21133"
             x="859.69141"
             height="20"
             width="20"
             id="rect5323"
             style="fill:#cccccc;fill-opacity:1;stroke:none" />
          <text
             sodipodi:linespacing="125%"
             id="text5339"
             y="315.58145"
             x="888.98639"
             style="font-size:24px;font-style:normal;font-variant:normal;font-weight:normal;font-stretch:normal;text-align:start;line-height:125%;letter-spacing:0px;word-spacing:0px;writing-mode:lr-tb;text-anchor:start;fill:#ffffff;fill-opacity:1;stroke:none;font-family:'汉仪中黑简';-inkscape-font-specification:'汉仪中黑简'"
             xml:space="preserve"><tspan
             style="font-size:18px;font-style:normal;font-variant:normal;font-weight:normal;font-stretch:normal;text-align:start;line-height:125%;writing-mode:lr-tb;text-anchor:start;font-family:'汉仪中黑简';-inkscape-font-specification:'汉仪中黑简'"
             y="315.58145"
             x="888.98639"
             id="tspan5341"
             sodipodi:role="line">离线</tspan></text>
        </g>
        <g
           transform="translate(-4.5776367e-5,0)"
           id="g5347">
          <rect
             style="fill:#ffffff;fill-opacity:1;stroke:none"
             id="rect5325"
             width="20"
             height="20"
             x="949.31439"
             y="300.21133"
             rx="0.90657556"
             ry="0.90657556" />
          <text
             xml:space="preserve"
             style="font-size:24px;font-style:normal;font-variant:normal;font-weight:normal;font-stretch:normal;text-align:start;line-height:125%;letter-spacing:0px;word-spacing:0px;writing-mode:lr-tb;text-anchor:start;fill:#ffffff;fill-opacity:1;stroke:none;font-family:'汉仪中黑简';-inkscape-font-specification:'汉仪中黑简'"
             x="978.19611"
             y="315.58145"
             id="text5343"
             sodipodi:linespacing="125%"><tspan
             sodipodi:role="line"
             id="tspan5345"
             x="978.19611"
             y="315.58145"
             style="font-size:18px;font-style:normal;font-variant:normal;font-weight:normal;font-stretch:normal;text-align:start;line-height:125%;writing-mode:lr-tb;text-anchor:start;font-family:'汉仪中黑简';-inkscape-font-specification:'汉仪中黑简'">关闭</tspan></text>
        </g>
      </g>
    </g>
  </g>
</svg>
